<?xml version="1.0" encoding="utf-8"?>
<!-- Generator: Adobe Illustrator 24.3.0, SVG Export Plug-In . SVG Version: 6.00 Build 0)  -->
<svg version="1.1" id="Layer_1" xmlns="http://www.w3.org/2000/svg" xmlns:xlink="http://www.w3.org/1999/xlink" x="0px" y="0px"
	 viewBox="0 0 32.8 26.2" style="enable-background:new 0 0 32.8 26.2;" xml:space="preserve">
<style type="text/css">
	.st0{fill:#FFFFFF;}
	.st1{fill:#EDCAA7;}
	.st2{enable-background:new    ;}
</style>
<g>
	<path id="Icon_awesome-door-open_4_" class="st1" d="M32,23h-4.1V5.8c0-1.4-1.1-2.5-2.5-2.5c0,0,0,0,0,0h-5.7v3.3h4.9v19.7H32
		c0.5,0,0.8-0.4,0.8-0.8v-1.6C32.8,23.3,32.4,23,32,23z M16,0L6.2,2.6C5.4,2.8,4.9,3.5,4.9,4.2V23H0.8C0.4,23,0,23.3,0,23.8v1.6
		c0,0.5,0.4,0.8,0.8,0.8H18V1.7c0-0.9-0.7-1.7-1.6-1.7C16.3,0,16.1,0,16,0L16,0z M13.5,14.8c-0.7,0-1.2-0.7-1.2-1.6s0.6-1.6,1.2-1.6
		s1.2,0.7,1.2,1.6S14.2,14.8,13.5,14.8z"/>
</g>
</svg>
