<svg id="Welcome_Email" data-name="Welcome Email" xmlns="http://www.w3.org/2000/svg" width="1091" height="855.447" viewBox="0 0 1091 855.447">
  <g id="Group_120" data-name="Group 120" transform="translate(0 0)">
    <rect id="Rectangle_67" data-name="Rectangle 67" width="363" height="2" transform="translate(726.5 795.723)" fill="#edcaa7"/>
    <rect id="Rectangle_68" data-name="Rectangle 68" width="772.841" height="506.863" transform="translate(105.537 263.234)" fill="#3f3d56"/>
    <path id="Path_96" data-name="Path 96" d="M426.287,792.374c32.1-140.38,35.9-330.121-90.411-506.863H556.021c95.386,74.208,253.331,233.164,318.557,506.863Z" transform="translate(-54.5 -22.277)" fill="#ebc0c0"/>
    <path id="Path_138" data-name="Path 138" d="M6.534,0A6.534,6.534,0,1,1,0,6.534,6.534,6.534,0,0,1,6.534,0Z" transform="translate(141.974 321.756)" fill="#f2dbdb"/>
    <circle id="Ellipse_15" data-name="Ellipse 15" cx="2.904" cy="2.904" r="2.904" transform="translate(717.852 437.704)" fill="#d0cde1"/>
    <circle id="Ellipse_16" data-name="Ellipse 16" cx="2.904" cy="2.904" r="2.904" transform="translate(192.349 709.417)" fill="#d0cde1"/>
    <circle id="Ellipse_17" data-name="Ellipse 17" cx="2.904" cy="2.904" r="2.904" transform="translate(714.984 328.015)" fill="#f2dbdb"/>
    <path id="Path_137" data-name="Path 137" d="M2.9,0A2.9,2.9,0,1,1,0,2.9,2.9,2.9,0,0,1,2.9,0Z" transform="translate(261.173 591.842)" fill="#f2dbdb"/>
    <path id="Path_97" data-name="Path 97" d="M160.3,383.765h-1.452v-1.452h-.726v1.452h-1.452v.726h1.452v1.451h.726v-1.451H160.3Z" fill="#d0cde1"/>
    <path id="Path_98" data-name="Path 98" d="M156.72,536.469h-1.452v-1.452h-.726v1.452H153.09v.726h1.452v1.452h.726V537.2h1.452Z" fill="#d0cde1"/>
    <path id="Path_99" data-name="Path 99" d="M242.751,294.866H241.3v-1.452h-.726v1.452h-1.452v.726h1.452v1.452h.726v-1.452h1.452Z" fill="#d0cde1"/>
    <path id="Path_100" data-name="Path 100" d="M837.795,674.834h-1.452v-1.451h-.726v1.451h-1.452v.726h1.452v1.452h.726V675.56h1.452Z" fill="#d0cde1"/>
    <path id="Path_101" data-name="Path 101" d="M823.457,398.82h-1.452v-1.452h-.726v1.452h-1.452v.726h1.452V401h.726v-1.452h1.452Z" fill="#d0cde1"/>
    <path id="Path_102" data-name="Path 102" d="M229.846,418.177h-1.452v-1.452h-.726v1.452h-1.452v.726h1.452v1.452h.726V418.9h1.452Z" fill="#d0cde1"/>
    <path id="Path_103" data-name="Path 103" d="M323.763,672.684h-1.452v-1.452h-.726v1.452h-1.452v.726h1.452v1.452h.726V673.41h1.452Z" fill="#d0cde1"/>
    <path id="Path_104" data-name="Path 104" d="M792.629,466.21h-1.452v-1.451h-.726v1.451H789v.726h1.452v1.452h.726v-1.452h1.452Z" fill="#d0cde1"/>
    <path id="Path_105" data-name="Path 105" d="M325.913,499.906h-1.451v-1.452h-.726v1.452h-1.452v.726h1.452v1.452h.726v-1.452h1.451Z" fill="#d0cde1"/>
    <path id="Path_106" data-name="Path 106" d="M814.137,561.561h-1.452v-1.452h-.726v1.452h-1.452v.726h1.452v1.452h.726v-1.452h1.452Z" fill="#d0cde1"/>
    <path id="Path_107" data-name="Path 107" d="M816.287,311.356h-1.452V309.9h-.726v1.452h-1.451v.726h1.451v1.451h.726v-1.451h1.452Z" fill="#d0cde1"/>
    <path id="Path_108" data-name="Path 108" d="M614.833,302.752h-1.452V301.3h-.726v1.451H611.2v.726h1.452v1.452h.726v-1.452h1.452Z" fill="#d0cde1"/>
    <path id="Path_109" data-name="Path 109" d="M261.391,481.266h-1.452v-1.452h-.726v1.452h-1.452v.726h1.452v1.452h.726v-1.452h1.452Z" fill="#d0cde1"/>
    <path id="Path_110" data-name="Path 110" d="M629.39,767.78l76.5-113.765-76.344,126,.16,12.8q-8.377.064-16.592-.279l3.794-164.553-.1-1.269.14-.245.363-15.549L533.53,489.289l83.679,110,.3,3.287,2.866-124.326L548.01,352.139l72.567,104.267-.757-257.572,0-.857.025.843,4.8,203L690.6,319.362,624.866,419.31l1.439,111.207,60.686-108.534L626.528,546.866l.8,61.837,88.254-151.186L627.6,630.275Z" transform="translate(-54.5 -22.277)" fill="#3f3d56"/>
    <path id="Path_111" data-name="Path 111" d="M269.008,686.4c2.243,76.794-42.627,104.937-98.938,106.581q-1.962.057-3.906.07-3.917.03-7.758-.13c-50.927-2.114-91.24-29.148-93.325-100.566-2.158-73.909,89.578-169.939,96.461-177.042.006,0,.006,0,.012-.007.261-.271.4-.406.4-.406S266.766,609.614,269.008,686.4Z" transform="translate(-54.5 -22.277)" fill="#edcaa7"/>
    <path id="Path_112" data-name="Path 112" d="M166.016,781.345l35.771-53.194-35.7,58.917.075,5.986q-3.917.03-7.758-.13l1.774-76.942-.049-.594.065-.115.17-7.271-39.173-56.875L160.32,702.56l.139,1.537,1.34-58.133L127.964,587,161.9,635.752l-.354-120.436v-.4l.012.394,2.246,94.92,30.836-38.557L163.9,618.406l.673,52,28.376-50.749-28.272,58.393.375,28.914,41.266-70.692L165.178,717.05Z" transform="translate(-54.5 -22.277)" fill="#3f3d56"/>
    <path id="Path_113" data-name="Path 113" d="M935.346,220.329c2.243,76.794-42.627,104.937-98.938,106.581q-1.962.057-3.906.07-3.917.03-7.758-.13c-50.927-2.114-91.24-29.148-93.325-100.566C729.26,152.376,821,56.346,827.879,49.243c.006,0,.006,0,.012-.007.261-.271.4-.406.4-.406S933.1,143.542,935.346,220.329Z" transform="translate(-54.5 -22.277)" fill="#edcaa7"/>
    <path id="Path_114" data-name="Path 114" d="M832.354,315.272l35.771-53.194-35.7,58.917.075,5.986q-3.917.03-7.758-.13l1.774-76.942-.049-.594.065-.115.17-7.271-39.173-56.875,39.127,51.433.139,1.537,1.34-58.133L794.3,120.925l33.931,48.754-.354-120.436v-.4l.012.394,2.246,94.92L860.974,105.6l-30.736,46.734.673,52,28.376-50.749-28.272,58.393.375,28.914L872.657,170.2l-41.141,80.779Z" transform="translate(-54.5 -22.277)" fill="#3f3d56"/>
    <path id="Path_115" data-name="Path 115" d="M1145.5,793.277H54.5v-771h1091Zm-1089-2h1087v-767H56.5Z" transform="translate(-54.5 -22.277)" fill="#fff"/>
    <path id="Path_116" data-name="Path 116" d="M958.458,265.223c-2.99-.336-5.2,2.744-5.035,5.407s1.809,5.052,2.736,7.59c2.032,5.565.566,11.6-.912,17.3l-5.066,19.54c-1.771,6.832-4.188,14.454-11.126,17.836,6.55.685,13.394-2.621,16.284-7.867,1.32-2.4,1.977-5.245,4.3-6.941,2.428-1.772,6.048-1.7,8.955-.636s5.3,2.966,7.758,4.707c3.409,2.416,7.188,4.64,11.489,5.315s9.227-.537,11.6-3.782c2.154-2.944,2.231-7.332,5.735-8.971,2.868-1.342,6.357.034,9.106,1.559s5.793,3.3,8.967,2.7c3.8-.714,5.822-4.665,5.462-8.089s-2.413-6.492-4.061-9.606a44.468,44.468,0,0,1-4.334-29.763c1.385-6.674,4.341-13.318,3.23-20.031-1.535-9.275-11.021-16.507-21.4-18.4s-21.268.8-30.5,5.4c-5.991,2.987-11.636,6.952-14.757,12.373s-3.21,12.511,1.149,17.217" transform="translate(-54.5 -22.277)" fill="#2f2e41"/>
    <path id="Path_117" data-name="Path 117" d="M927.854,346.114l-10.788,18.34L905.2,404.73s-6.113,12.946-5.034,18.34,0,7.552,0,17.261-4.675,13.665,0,21.576,18.7,30.926,18.7,30.926l4.315,3.236s5.754-21.576,11.867-23.374c0,0-6.832-3.6-3.6-8.271s6.473-7.4,3.6-10.532-6.473-1.695-2.877-8.887,3.956-12.586,3.956-13.665.719-11.148,8.271-10.429S927.854,346.114,927.854,346.114Z" transform="translate(-54.5 -22.277)" fill="#f2dbdb"/>
    <path id="Path_118" data-name="Path 118" d="M1045.8,324.538s17.621,3.236,22.3,15.463,19.778,74.438,19.778,74.438,4.675,17.98,3.236,23.734-5.034,8.99-2.517,15.463,7.911,8.63,3.956,15.823-8.63,24.453-20.5,29.128-15.463,6.832-15.463,6.832l-6.833-29.128,4.675-3.236s0-7.192-.36-8.271,2.541-4.445,4.327-6,1.427-13.06,1.427-13.06L1044.006,392.5Z" transform="translate(-54.5 -22.277)" fill="#f2dbdb"/>
    <path id="Path_119" data-name="Path 119" d="M1056.592,513.69l-66.886,32.724,6.113,124.423s25.172,92.059,23.374,98.531-25.532,4.675-53.221-2.158-14.025-115.793-14.025-115.793S924.977,513.69,922.1,499.306c-2.129-10.648,10.522-28.592,17.236-37.19,2.355-3.017,3.981-4.883,3.981-4.883l92.059-3.956s.227,3.639,6.106,11.274c1.514,1.967,3.4,4.2,5.761,6.707C1058.75,483.483,1056.592,513.69,1056.592,513.69Z" transform="translate(-54.5 -22.277)" fill="#2f2e41"/>
    <path id="Path_120" data-name="Path 120" d="M975.321,763.974l5.034,33.084-2.517,34.882s-19.059,43.152,15.823,45.67,19.059-37.4,19.059-37.4a18.96,18.96,0,0,0,2.158-11.148c-.719-6.473-12.227-67.965-12.227-67.965Z" transform="translate(-54.5 -22.277)" fill="#2f2e41"/>
    <path id="Path_121" data-name="Path 121" d="M991.843,717.926l3.338,21.935-1.669,23.127S980.876,791.6,1004,793.269s12.637-24.8,12.637-24.8a12.571,12.571,0,0,0,1.431-7.391c-.477-4.292-8.106-45.062-8.106-45.062Z" transform="translate(-54.5 -22.277)" fill="#2f2e41"/>
    <path id="Path_122" data-name="Path 122" d="M983.033,467.679l19.059,23.734L965.772,704.3l-30.926-5.035-3.6-186.275Z" fill="#2f2e41"/>
    <circle id="Ellipse_29" data-name="Ellipse 29" cx="30.566" cy="30.566" r="30.566" transform="translate(901.043 207.326)" fill="#a0616a"/>
    <path id="Path_123" data-name="Path 123" d="M968.129,280.666l4.315,47.108,38.478-1.438s-9.35-35.6-4.315-50.7Z" transform="translate(-54.5 -22.277)" fill="#a0616a"/>
    <path id="Path_124" data-name="Path 124" d="M1041.481,464.55c-11.82,5.117-36.939,6.023-49.8,6.527-15.4.6-42.84-4.75-52.348-8.961,2.355-3.017,3.981-4.883,3.981-4.883l92.059-3.956S1035.6,456.915,1041.481,464.55Z" transform="translate(-54.5 -22.277)" fill="#3f3d56"/>
    <path id="Path_125" data-name="Path 125" d="M953.745,469.458s-10.069,42.433-9.709,42.433,13.305-7.192,13.305-7.192l1.8-38.478h-3.956Z" transform="translate(-54.5 -22.277)" fill="#3f3d56"/>
    <path id="Path_126" data-name="Path 126" d="M1050.119,467.3c-81.99-24.093-120.827,1.079-121.906,0s18.34-33.8,13.305-42.074-14.744-65.448-16.542-76.236,26.611-16.542,26.611-16.542l4.337-2.891,5.372-3.582s63.65-4.675,67.606-7.552a5.6,5.6,0,0,1,3.513-.619c6.649.414,19.145,5.833,23.817,8.17,5.754,2.877-3.956,76.6-3.956,76.6s.36,37.4,5.034,52.143S1050.119,467.3,1050.119,467.3Z" transform="translate(-54.5 -22.277)" fill="#f2dbdb"/>
    <path id="Path_127" data-name="Path 127" d="M1036.094,323.819s-5.034,12.227-34.882,19.778-35.6-1.8-44.231-12.586a17.684,17.684,0,0,1-1.057-1.453l5.372-3.582s63.65-4.675,67.606-7.552a5.6,5.6,0,0,1,3.513-.619A36.365,36.365,0,0,1,1036.094,323.819Z" transform="translate(-54.5 -22.277)" opacity="0.1"/>
    <path id="Path_128" data-name="Path 128" d="M1016.676,306.558s-1.938-22.305-10.858-7.736S993.3,314.829,993.3,314.829s-21.217-17.98-25.172-15.823-8.99,9.35-5.034,15.823-14.744,2.158-6.113,12.946,14.384,20.138,44.231,12.586,34.882-19.778,34.882-19.778S1028.543,304.041,1016.676,306.558Z" transform="translate(-54.5 -22.277)" fill="#f2dbdb"/>
    <path id="Path_129" data-name="Path 129" d="M963.6,213.724A23.267,23.267,0,0,0,947.8,229.277l-.047.156c.879-2.8,1.875-5.779,4.186-7.591s6.365-1.66,7.585,1.01a4.474,4.474,0,0,1,.356,2.133c-.2,3.22-3.013,5.624-5.808,7.236s-5.939,2.959-7.763,5.62c-3.01,4.391-1.24,10.284-1.239,15.608a22.626,22.626,0,0,1-8.575,17.57l10.147-4.148a76.688,76.688,0,0,0-9.371,27.481l13.72-11.334a60.328,60.328,0,0,0-9.011,26.78l11.013-11.284c1.766,3.047,0,6.854-1.769,9.9s-3.6,6.788-1.947,9.9c9.321-4.351,14.065-15.131,14.922-25.382s-1.344-20.486-1.934-30.756c-.288-5.015.284-10.946,4.569-13.567,4.04-2.472,9.236-.688,13.606,1.14l24.744,10.352c2.409,1.008,4.917,2.087,6.579,4.1,3.016,3.652,2.283,9.083.726,13.556s-3.808,8.967-3.318,13.678c.357,3.433,2.144,6.532,3.94,9.48s3.681,5.961,4.272,9.361-.441,7.338-3.385,9.14a14.5,14.5,0,0,0,17.832-15.046c-.441-6.785-5.579-12.864-4.91-19.63.507-5.131,4.258-9.346,5.706-14.3a16.877,16.877,0,0,0-6.576-18.22l7.857,8.358a11.925,11.925,0,0,0-.89-14.408c-3.368-3.721-9-5.116-11.614-9.4-2.685-4.4-1.244-10.386-3.783-14.875-6.22-11-22.145-3.2-31.684-7.039-3.92-1.577-6.9-3.313-11.31-3.188a44.191,44.191,0,0,0-11.032,2.06Z" transform="translate(-54.5 -22.277)" fill="#2f2e41"/>
  </g>
  <g id="Group_121" data-name="Group 121" transform="translate(-415 -78)">
    <g id="Group_2" data-name="Group 2" transform="translate(529.363 264.181)">
      <path id="Icon_awesome-door-open" data-name="Icon awesome-door-open" d="M64.878,46.579H56.56V11.8A5.074,5.074,0,0,0,51.57,6.654H39.925v6.654h9.981V53.233H64.878a1.663,1.663,0,0,0,1.664-1.664V48.242A1.663,1.663,0,0,0,64.878,46.579ZM32.464.1,12.5,5.276a3.426,3.426,0,0,0-2.52,3.345V46.579H1.664A1.663,1.663,0,0,0,0,48.242v3.327a1.663,1.663,0,0,0,1.664,1.664H36.6V3.45A3.355,3.355,0,0,0,32.464.1ZM27.448,29.944c-1.378,0-2.5-1.49-2.5-3.327s1.118-3.327,2.5-3.327,2.5,1.49,2.5,3.327S28.826,29.944,27.448,29.944Z" transform="translate(120.523 0)" fill="#edcaa7"/>
      <text id="Mind" transform="translate(0 49.214)" fill="#edcaa7" font-size="45" font-family="ITCAvantGardeStd-Bold, ITC Avant Garde Gothic Std" font-weight="700"><tspan x="0" y="0">Mind</tspan></text>
      <text id="Passage" transform="translate(195.329 50.214)" fill="#edcaa7" font-size="46" font-family="ITCAvantGardeStd-Bold, ITC Avant Garde Gothic Std" font-weight="700"><tspan x="0" y="0">Passage</tspan></text>
    </g>
  </g>
  <text id="Welcome_to_" data-name="Welcome to " transform="translate(114 174)" fill="#edcaa7" font-size="45" font-family="ITCAvantGardeStd-Bold, ITC Avant Garde Gothic Std" font-weight="700"><tspan x="0" y="0">Welcome to </tspan></text>
</svg>
