<svg id="Doorman_with_blob" xmlns="http://www.w3.org/2000/svg" width="964" height="1526.263" viewBox="0 0 964 1526.263">
  <g id="Group_119" data-name="Group 119">
    <g id="Background_Blob" transform="translate(54.268)">
      <path id="Path_75" data-name="Path 75" d="M1500,646.757c-226.209,298.43-495.8,212.567-667.393,353.77A312.236,312.236,0,0,0,803,1028.291c-248.166,264.969-297.861,784.258-49.129,1108.7,26.141,34.1,60.928,33.177,94.129,32.009,32.076-1.128,62.529-2.255,93,0,122.225,9.044,226.235,0,226.235,0H1500V646.757Z" transform="translate(-590.268 -646.757)" fill="rgba(237,202,167,0.75)"/>
    </g>
    <g id="Door_Person_Illustration" transform="translate(0 695.243)">
      <g id="Group_114" data-name="Group 114">
        <path id="Path_76" data-name="Path 76" d="M831.092,704.187c-11.138-9.412-17.9-24.28-16.13-38.754s12.764-27.78,27.018-30.854,30.5,5.435,34.834,19.359c2.383-26.846,5.129-54.818,19.4-77.68,12.924-20.7,35.309-35.514,59.569-38.164s49.8,7.359,64.933,26.507,18.835,46.985,8.238,68.969c-7.806,16.195-22.188,28.247-37.257,38.052A240.453,240.453,0,0,1,827.246,707.6Z" transform="translate(-165 -189.931)" fill="#ebc0c0"/>
        <path id="Path_77" data-name="Path 77" d="M996.728,546.01A396.759,396.759,0,0,0,880.15,703.646c-1.112,2.725,3.313,3.911,4.412,1.217a392.344,392.344,0,0,1,115.4-155.617C1002.248,547.385,998.993,544.165,996.728,546.01Z" transform="translate(-165 -189.931)" fill="#fff"/>
        <path id="Path_78" data-name="Path 78" d="M445.067,701.63c15.3-12.927,24.591-33.348,22.154-53.228s-17.531-38.156-37.11-42.378-41.9,7.464-47.844,26.59c-3.273-36.873-7.044-75.292-26.648-106.693-17.751-28.433-48.5-48.778-81.818-52.418s-68.4,10.107-89.185,36.407S158.747,574.445,173.3,604.64c10.722,22.243,30.475,38.8,51.172,52.264,66.03,42.965,147.939,60.884,225.877,49.415" transform="translate(-165 -189.931)" fill="#ebc0c0"/>
        <path id="Path_79" data-name="Path 79" d="M217.567,484.373a540.353,540.353,0,0,1,75.3,74.776,548.069,548.069,0,0,1,59.386,87.891,545.823,545.823,0,0,1,25.43,53.846c1.527,3.743-4.55,5.372-6.06,1.671a536.358,536.358,0,0,0-49.009-92.727,539.739,539.739,0,0,0-65.729-81.2,538.447,538.447,0,0,0-43.766-39.815c-3.138-2.555,1.332-6.978,4.444-4.444Z" transform="translate(-165 -189.931)" fill="#fff"/>
        <path id="Path_80" data-name="Path 80" d="M789.5,708.931h-365v-374.5c0-79.678,64.822-144.5,144.5-144.5h76c79.677,0,144.5,64.822,144.5,144.5Z" transform="translate(-165 -189.931)" fill="#f2dbdb"/>
        <path id="Path_81" data-name="Path 81" d="M713.5,708.931h-289v-374.5a143.382,143.382,0,0,1,27.6-84.944c.664-.9,1.326-1.8,2.009-2.681a144.465,144.465,0,0,1,30.754-29.851c.66-.48,1.322-.952,1.994-1.423a144.161,144.161,0,0,1,31.472-16.459c.661-.25,1.334-.5,2.007-.742a144.021,144.021,0,0,1,31.108-7.336c.658-.09,1.333-.16,2.008-.23a146.288,146.288,0,0,1,31.105,0c.673.07,1.349.141,2.014.231a143.993,143.993,0,0,1,31.1,7.335c.673.241,1.346.492,2.009.743a143.8,143.8,0,0,1,31.106,16.216c.672.461,1.344.933,2.006,1.4a145.988,145.988,0,0,1,18.383,15.564A144.292,144.292,0,0,1,683.9,246.808c.681.88,1.343,1.773,2.005,2.677a143.383,143.383,0,0,1,27.6,84.946Z" transform="translate(-165 -189.931)" fill="#ccc"/>
        <circle id="Ellipse_1" data-name="Ellipse 1" cx="16" cy="16" r="16" transform="translate(509 319.5)" fill="#080707"/>
        <path id="Path_82" data-name="Path 82" d="M594.6,507.783h-12.26l-5.833-47.288h18.1Z" fill="#e0ac69"/>
        <path id="Path_83" data-name="Path 83" d="M573.582,504.28h23.644v14.887H558.695A14.887,14.887,0,0,1,573.582,504.28Z" fill="#2f2e41"/>
        <path id="Path_84" data-name="Path 84" d="M655.6,507.783h-12.26L641.8,495.341l-4.3-34.846h18.1Z" fill="#e0ac69"/>
        <path id="Path_85" data-name="Path 85" d="M634.582,504.28h23.644v14.887H619.695A14.887,14.887,0,0,1,634.582,504.28Z" fill="#2f2e41"/>
        <path id="Path_86" data-name="Path 86" d="M698.1,528.6a10.743,10.743,0,0,1,4.51-15.843l41.676-114.867,20.507,11.191L717.206,518.853A10.8,10.8,0,0,1,698.1,528.6Z" transform="translate(-165 -189.931)" fill="#e0ac69"/>
        <path id="Path_87" data-name="Path 87" d="M814.336,550.184a10.743,10.743,0,0,1-2.893-16.217L798.533,412.458l23.338,1.066,5.366,119.52a10.8,10.8,0,0,1-12.9,17.139Z" transform="translate(-165 -189.931)" fill="#e0ac69"/>
        <circle id="Ellipse_2" data-name="Ellipse 2" cx="24.561" cy="24.561" r="24.561" transform="translate(587.545 137.562)" fill="#e0ac69"/>
        <path id="Path_88" data-name="Path 88" d="M814.18,522.549H740.133l.089-.576c.133-.861,13.2-86.439,3.562-114.436a11.813,11.813,0,0,1,6.069-14.583h0c13.772-6.485,40.208-14.471,62.52,4.909a28.234,28.234,0,0,1,9.459,23.4Z" transform="translate(-165 -189.931)" fill="#edcaa7"/>
        <path id="Path_89" data-name="Path 89" d="M754.354,448.181l-33.337-6.763,15.626-37.03a14,14,0,0,1,27.106,7Z" transform="translate(-165 -189.931)" fill="#edcaa7"/>
        <path id="Path_90" data-name="Path 90" d="M797.05,460.739l-2-45.941c-1.52-8.636,3.424-16.8,11.027-18.135s15.032,4.66,16.558,13.36l7.533,42.928Z" transform="translate(-165 -189.931)" fill="#edcaa7"/>
        <path id="Path_91" data-name="Path 91" d="M811.716,517.049c11.915,45.377,13.214,103.069,10,166l-16-2-29-120-16,122-18-1c-5.377-66.03-10.613-122.715-2-160Z" transform="translate(-165 -189.931)" fill="#2f2e41"/>
        <path id="Path_92" data-name="Path 92" d="M793.289,371.035c-4.582,4.881-13.091,2.261-13.688-4.407a8.054,8.054,0,0,1,.01-1.556c.308-2.954,2.015-5.635,1.606-8.754a4.59,4.59,0,0,0-.84-2.149c-3.651-4.889-12.222,2.187-15.668-2.239-2.113-2.714.371-6.987-1.251-10.021-2.14-4-8.479-2.029-12.454-4.221-4.423-2.439-4.158-9.225-1.247-13.353,3.551-5.034,9.776-7.72,15.923-8.107s12.253,1.275,17.992,3.511c6.521,2.541,12.988,6.053,17,11.788,4.88,6.973,5.35,16.348,2.909,24.5C802.1,360.99,797.031,367.049,793.289,371.035Z" transform="translate(-165 -189.931)" fill="#2f2e41"/>
        <path id="Path_93" data-name="Path 93" d="M1004.982,709.574H266.688a1.191,1.191,0,1,1,0-2.381h738.294a1.191,1.191,0,0,1,0,2.381Z" transform="translate(-165 -189.931)" fill="#3f3d56"/>
        <path id="Path_94" data-name="Path 94" d="M634,600.431H504a6.465,6.465,0,0,1-6.5-6.415V303.846a6.465,6.465,0,0,1,6.5-6.415H634a6.465,6.465,0,0,1,6.5,6.415V594.015a6.465,6.465,0,0,1-6.5,6.415Z" transform="translate(-165 -189.931)" fill="#fff"/>
        <rect id="Rectangle_62" data-name="Rectangle 62" width="143" height="2" transform="translate(332.5 201.39)" fill="#ccc"/>
        <rect id="Rectangle_63" data-name="Rectangle 63" width="143" height="2" transform="translate(333 315.5)" fill="#ccc"/>
        <rect id="Rectangle_64" data-name="Rectangle 64" width="2" height="304" transform="translate(377.5 107.5)" fill="#ccc"/>
        <rect id="Rectangle_65" data-name="Rectangle 65" width="2" height="304" transform="translate(427.5 107.5)" fill="#ccc"/>
      </g>
    </g>
  </g>
</svg>
