<svg xmlns="http://www.w3.org/2000/svg" width="682.637" height="107.694" viewBox="0 0 682.637 107.694">
  <g id="Mind_Passage_Logo" transform="translate(0 0)">
    <g id="Group_2" data-name="Group 2" transform="translate(0 0)">
      <path id="Icon_awesome-door-open" data-name="Icon awesome-door-open" d="M110.816,79.56H96.609V20.147a8.666,8.666,0,0,0-8.524-8.782H68.194V22.731H85.243V90.926h25.573a2.841,2.841,0,0,0,2.841-2.841V82.4A2.841,2.841,0,0,0,110.816,79.56ZM55.451.179l-34.1,8.833a5.852,5.852,0,0,0-4.3,5.713V79.56H2.841A2.841,2.841,0,0,0,0,82.4v5.683a2.841,2.841,0,0,0,2.841,2.841h59.67V5.892A5.731,5.731,0,0,0,55.451.179ZM46.884,51.146c-2.353,0-4.262-2.545-4.262-5.683s1.909-5.683,4.262-5.683,4.262,2.545,4.262,5.683S49.237,51.146,46.884,51.146Z" transform="translate(205.861 0)" fill="#edcaa7"/>
      <text id="Mind" transform="translate(0 86.694)" fill="#edcaa7" font-size="80" font-family="ITCAvantGardeStd-Bold, ITC Avant Garde Gothic Std" font-weight="700"><tspan x="0" y="0">Mind</tspan></text>
      <text id="Passage" transform="translate(333.637 86.694)" fill="#edcaa7" font-size="80" font-family="ITCAvantGardeStd-Bold, ITC Avant Garde Gothic Std" font-weight="700"><tspan x="0" y="0">Passage</tspan></text>
    </g>
  </g>
</svg>
