<svg id="Journal_Bkg" xmlns="http://www.w3.org/2000/svg" xmlns:xlink="http://www.w3.org/1999/xlink" width="1093.982" height="798.146" viewBox="0 0 1093.982 798.146">
  <defs>
    <linearGradient id="linear-gradient" x1="0.5" y1="1" x2="0.5" gradientUnits="objectBoundingBox">
      <stop offset="0" stop-color="gray" stop-opacity="0.251"/>
      <stop offset="0.54" stop-color="gray" stop-opacity="0.122"/>
      <stop offset="1" stop-color="gray" stop-opacity="0.102"/>
    </linearGradient>
    <linearGradient id="linear-gradient-2" x1="0.704" y1="1" x2="0.704" y2="0" xlink:href="#linear-gradient"/>
  </defs>
  <g id="Group_130" data-name="Group 130" transform="translate(0.012)">
    <g id="Group_127" data-name="Group 127" opacity="0.1">
      <path id="Path_242" data-name="Path 242" d="M119.37,170.3c10.2,17.75,4.55,40.79-6.53,58S86,259.17,73.72,275.59C49.31,308.35,43,360.08,73.78,387c6.63,5.8,14.83,10.39,18.87,18.21C98.23,416,94.1,429,89.89,440.43l-.35.94C73.63,484.5,97.07,532.3,141,545.83c24.31,7.49,46.25,19.63,62.49,39.26,14.19,17.16,22.39,38.33,31.75,58.53C252.16,680.11,274,715,304.18,741.57s69.56,44.18,109.76,42.73c91.82-3.31,159.43-100,251.16-105.09,6.61-.37,13.65-.12,19.18,3.52,7.8,5.14,10.19,15.23,13.47,24,17.37,46.43,69.67,67.83,116.5,84.09l88,30.58c47.8,16.6,98,33.45,148,25.76s98.82-48.75,96.65-99.31c-1.78-41.53-36.2-78.08-31.69-119.41,3.12-28.56,24.51-52.55,28.09-81.06,3.73-29.67-12.49-58.16-31.16-81.52-53.72-67.24-130.28-111.56-205-154.31-52.63-30.12-105.53-60.36-162.19-82-139.68-53.21-293.2-50.92-442-65.44-25.59-2.5-52.34-5.44-75.79-16.75-18-8.68-32.07-28.75-51.82-33-15.05-3.24-37.31,3.45-50.45,10.76C100.94,138.54,107.54,149.71,119.37,170.3Z" transform="translate(-53 -50.93)" fill="#988282"/>
    </g>
    <path id="Path_243" data-name="Path 243" d="M1040.87,50.93H237.18A28,28,0,0,0,209.3,79.08v565.2a28,28,0,0,0,27.88,28.15h803.69a28,28,0,0,0,27.88-28.15V79.08a28,28,0,0,0-27.88-28.15Z" transform="translate(-53 -50.93)" fill="url(#linear-gradient)"/>
    <path id="Path_244" data-name="Path 244" d="M1065.12,110.81V637.54a27.64,27.64,0,0,1-27.64,27.64H240.89a27.64,27.64,0,0,1-27.64-27.64V110.81Z" transform="translate(-53 -50.93)" fill="#f6f7f9"/>
    <path id="Path_245" data-name="Path 245" d="M421.34,382.3V665.17H240.89c-15.26,0-27.64-12.62-27.64-28.18V382.3Z" transform="translate(-53 -50.93)" fill="rgba(237,202,167,0.38)"/>
    <path id="Path_297" data-name="Path 297" d="M0,0H346.82V9.75H0Z" transform="translate(430.12 124.37)" fill="rgba(237,202,167,0.38)"/>
    <rect id="Rectangle_107" data-name="Rectangle 107" width="209.17" height="9.75" transform="translate(430.12 193.73)" fill="rgba(237,202,167,0.38)"/>
    <rect id="Rectangle_108" data-name="Rectangle 108" width="70.45" height="9.75" transform="translate(685.9 193.73)" fill="rgba(237,202,167,0.38)"/>
    <g id="Group_128" data-name="Group 128" opacity="0.1">
      <rect id="Rectangle_109" data-name="Rectangle 109" width="70.45" height="9.75" transform="translate(224.19 437.04)" fill="#8b7157"/>
    </g>
    <rect id="Rectangle_110" data-name="Rectangle 110" width="70.45" height="9.75" transform="translate(685.9 284.77)" fill="rgba(237,202,167,0.38)"/>
    <rect id="Rectangle_111" data-name="Rectangle 111" width="70.45" height="9.75" transform="translate(685.9 375.81)" fill="rgba(237,202,167,0.38)"/>
    <rect id="Rectangle_112" data-name="Rectangle 112" width="70.45" height="9.75" transform="translate(685.9 224.08)" fill="rgba(237,202,167,0.38)"/>
    <rect id="Rectangle_113" data-name="Rectangle 113" width="70.45" height="9.75" transform="translate(807.28 224.08)" fill="rgba(237,202,167,0.38)"/>
    <rect id="Rectangle_114" data-name="Rectangle 114" width="70.45" height="9.75" transform="translate(685.9 254.42)" fill="rgba(237,202,167,0.38)"/>
    <rect id="Rectangle_115" data-name="Rectangle 115" width="70.45" height="9.75" transform="translate(807.28 254.42)" fill="rgba(237,202,167,0.38)"/>
    <rect id="Rectangle_116" data-name="Rectangle 116" width="70.45" height="9.75" transform="translate(807.28 310.78)" fill="rgba(237,202,167,0.38)"/>
    <rect id="Rectangle_117" data-name="Rectangle 117" width="70.45" height="9.75" transform="translate(807.28 341.13)" fill="rgba(237,202,167,0.38)"/>
    <rect id="Rectangle_118" data-name="Rectangle 118" width="70.45" height="9.75" transform="translate(807.28 406.16)" fill="rgba(237,202,167,0.38)"/>
    <rect id="Rectangle_119" data-name="Rectangle 119" width="209.17" height="9.75" transform="translate(430.12 224.08)" fill="rgba(237,202,167,0.38)"/>
    <rect id="Rectangle_120" data-name="Rectangle 120" width="209.17" height="9.75" transform="translate(430.12 254.42)" fill="rgba(237,202,167,0.38)"/>
    <rect id="Rectangle_121" data-name="Rectangle 121" width="209.17" height="9.75" transform="translate(430.12 284.77)" fill="rgba(237,202,167,0.38)"/>
    <rect id="Rectangle_122" data-name="Rectangle 122" width="209.17" height="9.75" transform="translate(430.12 315.12)" fill="rgba(237,202,167,0.38)"/>
    <rect id="Rectangle_123" data-name="Rectangle 123" width="209.17" height="9.75" transform="translate(430.12 345.46)" fill="rgba(237,202,167,0.38)"/>
    <rect id="Rectangle_124" data-name="Rectangle 124" width="209.17" height="9.75" transform="translate(430.12 375.81)" fill="rgba(237,202,167,0.38)"/>
    <rect id="Rectangle_125" data-name="Rectangle 125" width="209.17" height="9.75" transform="translate(430.12 406.16)" fill="rgba(237,202,167,0.38)"/>
    <rect id="Rectangle_126" data-name="Rectangle 126" width="208.09" height="277.45" transform="translate(160.25 59.34)" fill="#edcaa7"/>
    <path id="Path_246" data-name="Path 246" d="M1065.12,82.63A27.64,27.64,0,0,0,1037.48,55H240.89a27.64,27.64,0,0,0-27.64,27.64v31.43h851.87Z" transform="translate(-53 -50.93)" fill="rgba(237,202,167,0.38)"/>
    <circle id="Ellipse_54" data-name="Ellipse 54" cx="10.84" cy="10.84" r="10.84" transform="translate(183.01 22.49)" fill="#ff5252"/>
    <circle id="Ellipse_55" data-name="Ellipse 55" cx="10.84" cy="10.84" r="10.84" transform="translate(218.77 22.49)" fill="#ff0"/>
    <circle id="Ellipse_56" data-name="Ellipse 56" cx="10.84" cy="10.84" r="10.84" transform="translate(254.54 22.49)" fill="#69f0ae"/>
    <path id="Path_247" data-name="Path 247" d="M378,249a60.41,60.41,0,0,1-13.52,38.17c-.33.41-.66.81-1,1.21h0a1.64,1.64,0,0,0-.18.22,61,61,0,0,1-10.47,9.59l-.5.37c-.69.49-1.39,1-2.1,1.42l-.49.31-1.05.65a5.33,5.33,0,0,1-.48.27,3.2,3.2,0,0,1-.41.25q-2.31,1.35-4.76,2.49c-.18.1-.38.18-.57.27s-.41.2-.63.28-.65.29-1,.42a59.06,59.06,0,0,1-10.83,3.4,60.5,60.5,0,0,1-10.75,1.31h-1.98A60.589,60.589,0,0,1,303.11,308l-.87-.21q-3.06-.8-6-1.86c-1.19-.44-2.37-.92-3.52-1.43-.29-.13-.57-.25-.86-.39l-.87-.39-.76-.39h0l-.8-.41-.89-.47-1-.57-.16-.09a60.931,60.931,0,0,1-11.78-8.71c-.3-.29-.61-.57-.9-.88s-.63-.62-.93-.94A60.69,60.69,0,1,1,378,249Z" transform="translate(-53 -50.93)" fill="#fff"/>
    <path id="Path_249" data-name="Path 249" d="M351.44,273.31v.08l.07.07C351.49,273.4,351.46,273.36,351.44,273.31Zm-61.16,30c-.1-1.4-.2-2.66-.29-3.74-.07-.76-.14-1.44-.2-2a.18.18,0,0,1,0-.08c0-.14,0-.27,0-.4a23,23,0,0,0-2.36,4.7l.16.09,1,.57.89.47.8.41a10.321,10.321,0,0,0,.1,1.4c-.05-.48-.07-.94-.1-1.39Zm13.31-57.17h0l.05.09h0a.23.23,0,0,1,0,.07.391.391,0,0,0-.05-.13Z" transform="translate(-53 -50.93)" fill="url(#linear-gradient-2)"/>
    <path id="Path_250" data-name="Path 250" d="M321,235.93s-3.61,16.22,6.31,24.79S303.88,276,298,268.83,302.08,258,302.08,258s5-4.06,0-16.22Z" transform="translate(-53 -50.93)" fill="#e0a17e"/>
    <path id="Path_251" data-name="Path 251" d="M330,308.34a60.5,60.5,0,0,1-10.75,1.31h-1.98A60.59,60.59,0,0,1,303.11,308l-.87-.21q-3.06-.8-6-1.86l-1-15,4.34-20.77,2.55-12.24.72-3.42.73,1,.16.22.2.26,8,10.65,8.19-8.82.42-.46,2.25-2.43.85-.91.4,3.09,1.44,11.11,2.67,20.49Z" transform="translate(-53 -50.93)" fill="#f0f1f5"/>
    <path id="Path_252" data-name="Path 252" d="M352.32,298.56c-.69.49-1.39,1-2.1,1.42l-.49.31-1.05.65a5.338,5.338,0,0,1-.48.27,3.2,3.2,0,0,1-.41.25A16.08,16.08,0,0,1,343,294.4a11,11,0,0,1-.3-1.06,1,1,0,0,1,0-.17l-.57,1.5L340.38,299s.52,2.12,1.45,5.48q-.49.23-1,.42A59.062,59.062,0,0,1,330,308.3a60.5,60.5,0,0,1-10.75,1.31h-.55a99.432,99.432,0,0,1-.53-14l1.32-25.17.67-12.7.37-7s.13.14.38.37.42.4.72.67h0a27,27,0,0,0,16,6.61,10.62,10.62,0,0,1,8.32,4.42,19.59,19.59,0,0,1,3.39,8.65l.3,2.75h0l.08.78.11,1Z" transform="translate(-53 -50.93)" opacity="0.1"/>
    <path id="Path_253" data-name="Path 253" d="M352.82,298.2l-.5.37c-.69.49-1.39,1-2.1,1.42l-.49.31-1.05.65a16.58,16.58,0,0,1-5.18-7.22h0a2.768,2.768,0,0,1-.12-.36c-.11-.35-.21-.72-.29-1.08l-.41,1.07-.56,1.45-1.28,3.34s.59,2.4,1.63,6.1c-.21.1-.41.2-.63.28s-.65.29-1,.42a59.062,59.062,0,0,1-10.83,3.4,60.5,60.5,0,0,1-10.75,1.31,99.492,99.492,0,0,1-.63-14.92l1.28-24.39.68-13,.33-6.13.06-1.27a2,2,0,0,0,.17.17,27.09,27.09,0,0,0,17,7.49,10.62,10.62,0,0,1,8.24,4.31,19.54,19.54,0,0,1,3.48,8.76l.53,4.93v.07h0l.11,1Z" transform="translate(-53 -50.93)" fill="#293158"/>
    <path id="Path_254" data-name="Path 254" d="M304.2,253v.61l-.16,2.32-.56,7.94s-.33,2.29-.57,7.45c-.35,6.8-.56,18.58.25,36.7l-.87-.21q-3.06-.8-6-1.86c-1.19-.44-2.37-.92-3.52-1.43-.29-.13-.57-.25-.86-.39-.29-4-.64-6.45-.64-6.45a11.682,11.682,0,0,0-.68,1c-.17.27-.38.6-.6,1l-.05.09h0q-.29.5-.62,1.14a16.967,16.967,0,0,0-.74,1.63l-1-.57-.16-.09a60.931,60.931,0,0,1-11.78-8.71c1.61-5.67,3-11.37,3.5-12.1a34.759,34.759,0,0,0,4.25-9.27,15.71,15.71,0,0,1,9-10,36.5,36.5,0,0,0,11.79-8.8h.02Z" transform="translate(-53 -50.93)" opacity="0.1"/>
    <path id="Path_255" data-name="Path 255" d="M304.21,252.72a54.081,54.081,0,0,1-12.81,8.07,15.71,15.71,0,0,0-9,10,34.76,34.76,0,0,1-4.25,9.27c-.49.73-1.89,6.44-3.5,12.12.29.3.6.59.9.88a60.931,60.931,0,0,0,11.78,8.71l.16.09a22.879,22.879,0,0,1,2.2-4.24l.05-.08c.35-.52.57-.8.57-.8s.09.66.22,1.85.3,3,.46,5.1l.87.39c.28.14.56.26.86.39,1.15.51,2.33,1,3.52,1.43a61.539,61.539,0,0,0,6,1.86c-.82-17.94-.64-29.76-.31-36.73.26-5.62.61-8.11.61-8.11l1.27-7.3.36-2.06.17-1Z" transform="translate(-53 -50.93)" fill="#293158"/>
    <path id="Path_256" data-name="Path 256" d="M310.64,251.71a14.81,14.81,0,0,1-6.49-1.49,29.171,29.171,0,0,0-2.07-7.53L321,236.84a36.22,36.22,0,0,0-.39,11,14.82,14.82,0,0,1-9.97,3.87Z" transform="translate(-53 -50.93)" opacity="0.1"/>
    <circle id="Ellipse_57" data-name="Ellipse 57" cx="14.87" cy="14.87" r="14.87" transform="translate(242.77 170.14)" fill="#e0a17e"/>
    <g id="Group_129" data-name="Group 129" opacity="0.1">
      <path id="Path_257" data-name="Path 257" d="M340.86,304.94c-1.17-4.11-1.82-6.81-1.82-6.81l2.25-5.86a12.653,12.653,0,0,0,.77,2.4l.05.13-1.28,3.34s.59,2.4,1.63,6.1c-.21.1-.41.2-.63.28S341.18,304.81,340.86,304.94Z" transform="translate(-53 -50.93)"/>
    </g>
    <path id="Path_258" data-name="Path 258" d="M358.41,276.94s-1.35-13.07,0-19.38-15.77.9-12.17,9.46a73.581,73.581,0,0,0,7.21,13.52Z" transform="translate(-53 -50.93)" fill="#e0a17e"/>
    <path id="Path_259" data-name="Path 259" d="M363.29,288.6a61.052,61.052,0,0,1-10.47,9.59l-.5.37c-.69.49-1.39,1-2.1,1.42a42.259,42.259,0,0,1-4.3-6.13l-.13-.23,3.61-18.93.38.39c.16.15.37.35.62.55h.05c1.87,1.6,5.82,4,7.72-1.58a16.85,16.85,0,0,0,.69-3l.37,1.38h0l.22.81,4,15.09h0Z" transform="translate(-53 -50.93)" opacity="0.1"/>
    <path id="Path_260" data-name="Path 260" d="M363.29,288.6a61,61,0,0,1-10.47,9.59l-.5.37c-.69.49-1.39,1-2.1,1.42l-.49.31a43.622,43.622,0,0,1-3.94-5.78l.13-.67,3.48-18.26s.18.21.49.5l.62.55a9.833,9.833,0,0,0,.89.68c2.07,1.42,5.22,2.49,6.82-2.5a16.886,16.886,0,0,0,.64-2.84l.46,1.7Z" transform="translate(-53 -50.93)" fill="#293158"/>
    <path id="Path_261" data-name="Path 261" d="M363.29,288.6a61,61,0,0,1-10.47,9.59l-.5.37c-.69.49-1.39,1-2.1,1.42l-.49.31a43.622,43.622,0,0,1-3.94-5.78l.13-.67,3.48-18.26s.18.21.49.5l.62.55a9.833,9.833,0,0,0,.89.68c2.07,1.42,5.22,2.49,6.82-2.5a16.886,16.886,0,0,0,.64-2.84l.46,1.7Z" transform="translate(-53 -50.93)" opacity="0.02"/>
    <path id="Path_262" data-name="Path 262" d="M289.79,297.58l-.05.08v-.15c.63-2.19,1.2-3.67,1.71-4.11,0,0,.67,4.45,1.27,11.12-.29-.13-.57-.25-.86-.39l-.87-.39c-.15-2.15-.31-3.9-.46-5.1s-.22-1.85-.22-1.85S290.14,297.06,289.79,297.58Z" transform="translate(-53 -50.93)" opacity="0.1"/>
    <ellipse id="Ellipse_58" data-name="Ellipse 58" cx="25.19" cy="9.25" rx="25.19" ry="9.25" transform="translate(150.81 547.85)" fill="#cd9494"/>
    <ellipse id="Ellipse_59" data-name="Ellipse 59" cx="12.85" cy="4.72" rx="12.85" ry="4.72" transform="translate(163.15 551.35)" opacity="0.05"/>
    <path id="Path_265" data-name="Path 265" d="M203.8,606s27.76,15.42,50.38,2.06c0,0-3.08,53.47-18.51,58.61H215.12S197.64,630.64,203.8,606Z" transform="translate(-53 -50.93)" fill="#988282"/>
    <path id="Path_266" data-name="Path 266" d="M250.75,508c7.07,25.83-23.07,99.41-23.07,99.41s-63.39-48-70.46-73.82A48.484,48.484,0,1,1,250.75,508Z" transform="translate(-53 -50.93)" fill="#edcaa7"/>
    <path id="Path_267" data-name="Path 267" d="M250.75,508c7.07,25.83-23.07,99.41-23.07,99.41s-63.39-48-70.46-73.82A48.484,48.484,0,1,1,250.75,508Z" transform="translate(-54 -50.93)" opacity="0.1"/>
    <path id="Path_268" data-name="Path 268" d="M191.45,474.17s39.46,59.57,36.49,133.37" transform="translate(-53 -50.93)" fill="none" stroke="#535461" stroke-miterlimit="10" stroke-width="1"/>
    <path id="Path_269" data-name="Path 269" d="M260.82,555.2S225,535.73,229.57,607.59c0,0,29.85-1.07,40.44-25.42a21.12,21.12,0,0,0-8.66-26.67Z" transform="translate(-53 -50.93)" fill="#edcaa7"/>
    <path id="Path_270" data-name="Path 270" d="M261.41,555.32s-4.62,37.3-31.84,52.27" transform="translate(-53 -50.93)" fill="none" stroke="#535461" stroke-miterlimit="10" stroke-width="1"/>
    <path id="Path_271" data-name="Path 271" d="M250.82,609.77c-1,12.3-5.31,50.5-18.22,54.81H214.17c.59,1.31.95,2.06.95,2.06h20.57c15.41-5.15,18.5-58.64,18.5-58.64A37.448,37.448,0,0,1,250.82,609.77Z" transform="translate(-53 -50.93)" opacity="0.05"/>
    <rect id="Rectangle_127" data-name="Rectangle 127" width="209.17" height="121.39" transform="translate(430.12 472.81)" fill="rgba(237,202,167,0.38)"/>
    <path id="Path_275" data-name="Path 275" d="M602.62,496.37,871.4,215a34.68,34.68,0,0,1,49-1.12h0a34.68,34.68,0,0,1,1.12,49L652.78,544.29l-73.74,27Z" transform="translate(-53 -50.93)" fill="#988282"/>
    <path id="Path_276" data-name="Path 276" d="M905.75,208.89h0a34.68,34.68,0,0,1,1.12,49L638.1,539.26l-55.36,20.25L579,571.27l73.74-27L921.55,263a34.68,34.68,0,0,0-1.12-49h0a34.52,34.52,0,0,0-20.31-9.41,34.818,34.818,0,0,1,5.63,4.3Z" transform="translate(-53 -50.93)" fill="#fff" opacity="0.1"/>
    <path id="Path_277" data-name="Path 277" d="M549.62,445.45l50.16,47.91-60.5,22.14-13.24,4.84,8.39-26.63Z" fill="#efc8c4"/>
    <path id="Path_278" data-name="Path 278" d="M587.43,544.63a14.749,14.749,0,0,1,5.16,2.07c1.82,1.31,3.14,3.58,2.64,5.76a13.818,13.818,0,0,1-2.08,3.77,11.77,11.77,0,0,0-.87,10.2L579,571.27Z" transform="translate(-53 -50.93)" fill="#727a9c"/>
    <path id="Path_296" data-name="Path 296" d="M897.41,390.13S902.16,389,926,385.4s65.55,4.77,65.55,4.77" transform="translate(-53 -50.93)" opacity="0.05"/>
  </g>
</svg>
