<svg id="Login_login_b" xmlns="http://www.w3.org/2000/svg" width="380.506" height="85.581" viewBox="0 0 380.506 85.581">
  <g id="Group_33" data-name="Group 33">
    <g id="Path_7" data-name="Path 7" transform="translate(0)" fill="#fff">
      <path d="M 337.7158203125 85.08107757568359 L 42.79052352905273 85.08107757568359 C 37.08112335205078 85.08107757568359 31.54277420043945 83.96297454833984 26.32932472229004 81.75787353515625 C 21.29342460632324 79.62787628173828 16.77067375183105 76.57852935791016 12.88662338256836 72.69448089599609 C 9.00257396697998 68.8104248046875 5.953223705291748 64.28762817382812 3.823223829269409 59.25177764892578 C 1.618123769760132 54.03827667236328 0.5000238418579102 48.49992752075195 0.5000238418579102 42.79052734375 C 0.5000238418579102 37.08112716674805 1.618123769760132 31.54277801513672 3.823223829269409 26.32927703857422 C 5.953223705291748 21.29342651367188 9.00257396697998 16.77062797546387 12.88662338256836 12.88657760620117 C 16.77067375183105 9.002527236938477 21.29342460632324 5.953177452087402 26.32932472229004 3.823177337646484 C 31.54277420043945 1.618077397346497 37.08112335205078 0.4999773502349854 42.79052352905273 0.4999773502349854 L 337.7158203125 0.4999773502349854 C 343.4252319335938 0.4999773502349854 348.9635620117188 1.618077397346497 354.1770629882812 3.823177337646484 C 359.2129211425781 5.953177452087402 363.7356872558594 9.002527236938477 367.6197814941406 12.88657760620117 C 371.5038146972656 16.77067756652832 374.5531616210938 21.29342651367188 376.6831665039062 26.32927703857422 C 378.8882751464844 31.54277801513672 380.0063781738281 37.08112716674805 380.0063781738281 42.79052734375 C 380.0063781738281 48.49992752075195 378.8882751464844 54.03827667236328 376.6831665039062 59.25177764892578 C 374.5531616210938 64.28762817382812 371.5038146972656 68.81037902832031 367.6197814941406 72.69448089599609 C 363.7356872558594 76.57852935791016 359.2129211425781 79.62787628173828 354.1770629882812 81.75787353515625 C 348.9635620117188 83.96297454833984 343.4252319335938 85.08107757568359 337.7158203125 85.08107757568359 Z" stroke="none"/>
      <path d="M 42.79046630859375 0.9999771118164062 C 37.14837646484375 0.9999771118164062 31.675537109375 2.104774475097656 26.52407836914062 4.283676147460938 C 21.54776000976562 6.388481140136719 17.07843017578125 9.401878356933594 13.2401123046875 13.24018096923828 C 9.401885986328125 17.07843017578125 6.38848876953125 21.54782867431641 4.283660888671875 26.52407836914062 C 2.104766845703125 31.67557907104492 0.999969482421875 37.1484260559082 0.999969482421875 42.79052734375 C 0.999969482421875 48.4326286315918 2.104766845703125 53.90547943115234 4.283660888671875 59.05697631835938 C 6.38848876953125 64.03322601318359 9.401885986328125 68.50262451171875 13.2401123046875 72.34088134765625 C 17.07843017578125 76.17917633056641 21.54776000976562 79.19258117675781 26.52407836914062 81.29737854003906 C 31.675537109375 83.47628021240234 37.14837646484375 84.58107757568359 42.79046630859375 84.58107757568359 L 337.7158203125 84.58107757568359 C 343.35791015625 84.58107757568359 348.8307800292969 83.47628021240234 353.9822692871094 81.29737854003906 C 358.9585266113281 79.19258117675781 363.4278869628906 76.17917633056641 367.2661743164062 72.34092712402344 C 371.1044616699219 68.50262451171875 374.1178588867188 64.03322601318359 376.2226257324219 59.05697631835938 C 378.4015197753906 53.90547943115234 379.5063171386719 48.43267822265625 379.5063171386719 42.79052734375 C 379.5063171386719 37.14837646484375 378.4015197753906 31.67557907104492 376.2226257324219 26.52407836914062 C 374.1178588867188 21.54782867431641 371.1044616699219 17.07843017578125 367.2661743164062 13.24012756347656 C 363.4278869628906 9.401878356933594 358.9585266113281 6.388481140136719 353.9822692871094 4.283676147460938 C 348.8307800292969 2.104774475097656 343.35791015625 0.9999771118164062 337.7158203125 0.9999771118164062 L 42.79046630859375 0.9999771118164062 M 42.79046630859375 -2.288818359375e-05 L 337.7158203125 -2.288818359375e-05 C 361.348388671875 -2.288818359375e-05 380.5063171386719 19.15797424316406 380.5063171386719 42.79052734375 C 380.5063171386719 66.42308044433594 361.348388671875 85.58107757568359 337.7158203125 85.58107757568359 L 42.79046630859375 85.58107757568359 C 19.157958984375 85.58107757568359 -3.0517578125e-05 66.42308044433594 -3.0517578125e-05 42.79052734375 C -3.0517578125e-05 19.15797424316406 19.157958984375 -2.288818359375e-05 42.79046630859375 -2.288818359375e-05 Z" stroke="none" fill="#988282"/>
    </g>
    <g id="Component_7_2" data-name="Component 7 – 2" transform="translate(148 26.25)">
      <text id="Login" transform="translate(41 27)" fill="#988282" font-size="30" font-family="Arial-BoldMT, Arial" font-weight="700"><tspan x="-40.818" y="0">Login</tspan></text>
    </g>
  </g>
</svg>
