<svg id="Create_Profile_b" xmlns="http://www.w3.org/2000/svg" width="378.548" height="85.141" viewBox="0 0 378.548 85.141">
  <g id="Group_84" data-name="Group 84" transform="translate(0)">
    <g id="Path_7" data-name="Path 7" transform="translate(0)" fill="#fff">
      <path d="M 335.9779357910156 84.64059448242188 L 42.57033920288086 84.64059448242188 C 36.89064025878906 84.64059448242188 31.38113975524902 83.52835083007812 26.19483947753906 81.33469390869141 C 21.18519020080566 79.21579742431641 16.68593978881836 76.18229675292969 12.82208919525146 72.31849670410156 C 8.95828914642334 68.45469665527344 5.924789428710938 63.95544815063477 3.805889368057251 58.94579696655273 C 1.612239360809326 53.75949859619141 0.49998939037323 48.24999618530273 0.49998939037323 42.57029724121094 C 0.49998939037323 36.89064788818359 1.612239360809326 31.3810977935791 3.805889368057251 26.19479751586914 C 5.924789428710938 21.18514633178711 8.95828914642334 16.68594741821289 12.82208919525146 12.822096824646 C 16.68593978881836 8.958296775817871 21.18519020080566 5.924797058105469 26.19483947753906 3.805897235870361 C 31.38113975524902 1.612247228622437 36.89064025878906 0.4999972283840179 42.57033920288086 0.4999972283840179 L 335.9779357910156 0.4999972283840179 C 341.6576538085938 0.4999972283840179 347.1671447753906 1.612247228622437 352.3534545898438 3.805897235870361 C 357.3630981445312 5.924797058105469 361.8623352050781 8.958296775817871 365.7261962890625 12.822096824646 C 369.5899963378906 16.68594741821289 372.6235046386719 21.18514633178711 374.7424011230469 26.19479751586914 C 376.93603515625 31.3810977935791 378.0482788085938 36.89064788818359 378.0482788085938 42.57029724121094 C 378.0482788085938 48.24999618530273 376.93603515625 53.75949859619141 374.7424011230469 58.94579696655273 C 372.6235046386719 63.95544815063477 369.5899963378906 68.45469665527344 365.7261962890625 72.31849670410156 C 361.8623352050781 76.18229675292969 357.3630981445312 79.21579742431641 352.3534545898438 81.33469390869141 C 347.1671447753906 83.52835083007812 341.6576538085938 84.64059448242188 335.9779357910156 84.64059448242188 Z" stroke="none"/>
      <path d="M 42.57028198242188 1 C 36.9578857421875 1 31.51394653320312 2.098945617675781 26.38958740234375 4.266395568847656 C 21.43954467773438 6.360099792480469 16.99374389648438 9.357597351074219 13.17562866210938 13.17564392089844 C 9.357574462890625 16.99369812011719 6.360076904296875 21.43949890136719 4.266387939453125 26.38954544067383 C 2.09893798828125 31.51389694213867 1 36.9578971862793 1 42.57029724121094 C 1 48.18269729614258 2.09893798828125 53.62664794921875 4.266387939453125 58.75099945068359 C 6.360076904296875 63.7010498046875 9.357574462890625 68.1468505859375 13.17562866210938 71.96495056152344 C 16.99374389648438 75.78299713134766 21.43954467773438 78.78049468994141 26.38958740234375 80.87419891357422 C 31.51394653320312 83.04164886474609 36.9578857421875 84.14059448242188 42.57028198242188 84.14059448242188 L 335.9779357910156 84.14059448242188 C 341.59033203125 84.14059448242188 347.0343017578125 83.04164886474609 352.15869140625 80.87419891357422 C 357.1087036132812 78.78049468994141 361.5545349121094 75.78299713134766 365.3725891113281 71.96495056152344 C 369.190673828125 68.1468505859375 372.1882019042969 63.7010498046875 374.2818908691406 58.75099945068359 C 376.4492797851562 53.62664794921875 377.5482788085938 48.18269729614258 377.5482788085938 42.57029724121094 C 377.5482788085938 36.9578971862793 376.4492797851562 31.51389694213867 374.2818908691406 26.38954544067383 C 372.1882019042969 21.43949890136719 369.190673828125 16.99369812011719 365.3725891113281 13.17564392089844 C 361.5545349121094 9.357597351074219 357.1087036132812 6.360099792480469 352.15869140625 4.266395568847656 C 347.0343017578125 2.098945617675781 341.59033203125 1 335.9779357910156 1 L 42.57028198242188 1 M 42.57028198242188 0 L 335.9779357910156 0 C 359.4888305664062 0 378.5482788085938 19.05934906005859 378.5482788085938 42.57029724121094 C 378.5482788085938 66.08119964599609 359.4888305664062 85.14059448242188 335.9779357910156 85.14059448242188 L 42.57028198242188 85.14059448242188 C 19.05938720703125 85.14059448242188 0 66.08119964599609 0 42.57029724121094 C 0 19.05934906005859 19.05938720703125 0 42.57028198242188 0 Z" stroke="none" fill="#988282"/>
    </g>
    <text id="Create_Profile" data-name="Create Profile" transform="translate(185.668 53.603)" fill="#988282" font-size="30" font-family="Arial-BoldMT, Arial" font-weight="700"><tspan x="-97.537" y="0">Create Profile</tspan></text>
  </g>
</svg>
