<svg id="Find_My_Therapist_Button" xmlns="http://www.w3.org/2000/svg" width="495.54" height="149.597" viewBox="0 0 495.54 149.597">
  <path id="Path_48" data-name="Path 48" d="M44.9,0H450.642c24.8,0,44.9,11.133,44.9,24.866v99.865c0,13.733-20.1,24.866-44.9,24.866H44.9C20.1,149.6,0,138.464,0,124.731V24.866C0,11.133,20.1,0,44.9,0Z" fill="#edcaa7"/>
  <text id="Find_My_Therapist" data-name="Find My Therapist" transform="translate(284.575 78.704)" fill="#fff" font-size="27" font-family="Arial-BoldMT, Arial" font-weight="700"><tspan x="-115.508" y="0">Find My Therapist</tspan></text>
  <g id="Group_109" data-name="Group 109" transform="translate(39.27 24.306)">
    <g id="Group_106" data-name="Group 106">
      <g id="Group_43" data-name="Group 43" transform="translate(44.854 0.001)">
        <path id="Path_44" data-name="Path 44" d="M300.387,253.665l-8.3-3.2-4.231-4.231a1.515,1.515,0,0,0-.98-.442v-3.367a15.718,15.718,0,0,0,3.987-7.853,4.318,4.318,0,0,0,1.069-.085,4.511,4.511,0,0,0,3.5-4.473V228.9a4.564,4.564,0,0,0-1.343-3.241c1.346-7.32.238-13.285-3.22-17.277-3.344-3.862-8.732-5.708-15.58-5.337a20.413,20.413,0,0,0-11.705,4.318,8.041,8.041,0,0,0-3.137,1.066c-1.692,1.016-3.71,3.149-3.71,7.545a38.108,38.108,0,0,0,1.056,8.853,4.518,4.518,0,0,0-2.482,4.09v1.094a4.51,4.51,0,0,0,3.5,4.473,4.318,4.318,0,0,0,1.069.085,15.724,15.724,0,0,0,3.987,7.853v3.367a1.519,1.519,0,0,0-.98.442l-4.231,4.231-8.3,3.2a10.06,10.06,0,0,0-2.037,1.067,1.524,1.524,0,1,0,1.712,2.521,7.055,7.055,0,0,1,1.423-.744l7.7-2.971,5.889,8.833a4.359,4.359,0,0,0,3.209,1.928c.146.015.292.021.436.021a4.35,4.35,0,0,0,2.145-.568l-1.264,28.665a1.524,1.524,0,0,0,1.456,1.59h.068a1.524,1.524,0,0,0,1.521-1.457l1.173-26.607h3.164l1.173,26.607a1.524,1.524,0,0,0,1.521,1.457h.069a1.524,1.524,0,0,0,1.455-1.59l-1.264-28.665a4.37,4.37,0,0,0,5.791-1.381l5.889-8.833,7.7,2.971a7,7,0,0,1,2.741,1.91l-5.269,5.269a10.016,10.016,0,0,0-2.952,7.127v21.67a1.524,1.524,0,1,0,3.048,0v-21.67a6.986,6.986,0,0,1,2.059-4.971l4.624-4.625a7.012,7.012,0,0,1,.244,2.13l-1.181,29.075a1.524,1.524,0,0,0,1.461,1.584l.064,0a1.524,1.524,0,0,0,1.521-1.462l1.181-29.075A10.075,10.075,0,0,0,300.387,253.665Zm-37.523-19.722a2.968,2.968,0,0,0-3.087-2.419,1.28,1.28,0,0,1-.355-.024,1.477,1.477,0,0,1-1.063-1.487V228.92a1.444,1.444,0,0,1,1.076-1.45,1.326,1.326,0,0,1,1.3.5,2.126,2.126,0,0,0,2.921.459,11.056,11.056,0,0,0,2.5-2.444,1.524,1.524,0,0,0-2.445-1.819,8.132,8.132,0,0,1-1.187,1.283,4.351,4.351,0,0,0-1.653-.883,35.052,35.052,0,0,1-1.089-8.59c0-2.334.72-3.974,2.139-4.874a4.944,4.944,0,0,1,2.278-.731,1.541,1.541,0,0,0,1.052-.421,17.166,17.166,0,0,1,10.2-3.858c5.874-.318,10.407,1.165,13.112,4.288,2.726,3.148,3.633,7.98,2.649,14.029a6.554,6.554,0,0,0-1.3.091l-1.432-3.439a1.524,1.524,0,0,0-1.792-.889c-.142.037-14.216,3.6-20.118-3.743a1.524,1.524,0,0,0-2.376,1.909c6.026,7.5,17.983,5.871,21.964,5.075l1.108,2.658a2.5,2.5,0,0,0,2.894,1.485,3.282,3.282,0,0,1,1.14-.083,1.436,1.436,0,0,1,1.081,1.43v1.112a1.477,1.477,0,0,1-1.063,1.487,1.28,1.28,0,0,1-.355.024,2.968,2.968,0,0,0-3.086,2.419,12.718,12.718,0,0,1-25.016,0Zm6.761,26.94a1.328,1.328,0,0,1-2.043-.2l-5.932-8.9,2.385-2.386,9.108,7.969Zm4.3,2.013.092-2.1,1.355-1.355,1.356,1.355.092,2.1Zm1.448-7.63-8.457-7.4V244.95a15.771,15.771,0,0,0,16.914,0v2.917Zm7.791,5.414a1.328,1.328,0,0,1-2.043.2l-3.518-3.518,9.107-7.969,2.386,2.386Z" transform="translate(-247.652 -203.001)" fill="#fff"/>
      </g>
      <g id="Group_45" data-name="Group 45">
        <path id="Path_45" data-name="Path 45" d="M243.744,261.653,236.3,258.4l-4.068-4.067a1.51,1.51,0,0,0-.979-.442v-2.4a15.741,15.741,0,0,0,6.838-10.248,4.395,4.395,0,0,0,1.2-.114,4.538,4.538,0,0,0,3.366-4.444V235.58a4.545,4.545,0,0,0-1.953-3.748,17.221,17.221,0,0,0,.527-4.223,17.77,17.77,0,0,0-8.558-15.068,10.092,10.092,0,0,0-20.153,0,17.772,17.772,0,0,0-8.558,15.068,17.211,17.211,0,0,0,.525,4.211,4.552,4.552,0,0,0-1.95,3.776v1.095a4.537,4.537,0,0,0,3.365,4.444,4.395,4.395,0,0,0,1.2.114,15.742,15.742,0,0,0,6.839,10.248v2.4a1.514,1.514,0,0,0-.98.442L208.9,258.4l-7.442,3.249a10.142,10.142,0,0,0-6.038,9.664l.9,21.234a1.525,1.525,0,0,0,1.522,1.46l.065,0a1.523,1.523,0,0,0,1.458-1.588l-.9-21.233a7.027,7.027,0,0,1,.966-3.839l4,4.8a8.47,8.47,0,0,1,1.96,5.414v14.922a1.524,1.524,0,1,0,3.048,0V277.564a11.524,11.524,0,0,0-2.667-7.365l-4.252-5.1a6.942,6.942,0,0,1,1.156-.649l6.486-2.831,4.583,7.439a2.949,2.949,0,0,0,4.426.7l2.9-2.478v25.214a1.524,1.524,0,1,0,3.048,0V267.273l2.9,2.478a2.951,2.951,0,0,0,4.426-.7l4.583-7.44,6.486,2.831a6.95,6.95,0,0,1,1.157.649l-4.253,5.1a11.525,11.525,0,0,0-2.667,7.365v14.922a1.524,1.524,0,1,0,3.048,0V277.564a8.475,8.475,0,0,1,1.96-5.414l4-4.8a7.009,7.009,0,0,1,.966,3.838l-.9,21.234a1.524,1.524,0,0,0,1.458,1.587c.022,0,.044,0,.066,0a1.524,1.524,0,0,0,1.521-1.46l.9-21.233A10.142,10.142,0,0,0,243.744,261.653Zm-21.142-55.6a6.982,6.982,0,0,1,6.786,4.871,19.334,19.334,0,0,0-13.574,0A6.983,6.983,0,0,1,222.6,206.048ZM210.092,240.62a2.968,2.968,0,0,0-3.086-2.419,1.319,1.319,0,0,1-.4-.034,1.488,1.488,0,0,1-1.019-1.478V235.6a1.444,1.444,0,0,1,1.075-1.449,1.325,1.325,0,0,1,1.3.5,2.126,2.126,0,0,0,2.921.459,11.062,11.062,0,0,0,2.467-2.4,1.524,1.524,0,0,0-2.438-1.831,8,8,0,0,1-1.163,1.25,4.367,4.367,0,0,0-2.3-1.012,14.158,14.158,0,0,1-.442-3.5c0-8.2,6.992-14.874,15.587-14.874s15.585,6.672,15.585,14.874a14.183,14.183,0,0,1-.44,3.5,7.081,7.081,0,0,0-1.186.2l-1.145-.942a2.925,2.925,0,0,0-2.034-.667c-2.24.132-13.713.435-19.6-6.609a1.524,1.524,0,0,0-2.339,1.954c2.9,3.474,7.161,5.824,12.655,6.983a37.333,37.333,0,0,0,9.41.718l1.788,1.469a1.521,1.521,0,0,0,1.733.142,3.362,3.362,0,0,1,1.5-.2,1.437,1.437,0,0,1,1.08,1.43v1.111a1.488,1.488,0,0,1-1.019,1.478,1.317,1.317,0,0,1-.4.034,2.972,2.972,0,0,0-3.086,2.419,12.718,12.718,0,0,1-25.017,0Zm6.189,26.738-4.583-7.441,2.347-2.348,6.312,6.311Zm6.32-5.545-5.606-5.6v-3.153a15.764,15.764,0,0,0,11.211,0v3.153Zm6.319,5.545-4.076-3.478,6.312-6.311,2.348,2.348Z" transform="translate(-195.412 -203)" fill="#fff"/>
      </g>
    </g>
  </g>
</svg>
