<svg id="Find_My_Therapist_Button" xmlns="http://www.w3.org/2000/svg" width="412.406" height="124.5" viewBox="0 0 412.406 124.5">
  <path id="Path_48" data-name="Path 48" d="M37.366,0H375.041c20.636,0,37.366,9.265,37.366,20.694v83.111c0,11.429-16.729,20.694-37.366,20.694H37.366C16.729,124.5,0,115.235,0,103.806V20.694C0,9.265,16.729,0,37.366,0Z" transform="translate(0 0)" fill="#edcaa7"/>
  <text id="Find_My_Therapist" data-name="Find My Therapist" transform="translate(230.294 64.527)" fill="#fff" font-size="21" font-family="Arial-BoldMT, Arial" font-weight="700"><tspan x="-89.84" y="0">Find My Therapist</tspan></text>
  <g id="Group_109" data-name="Group 109" transform="translate(32.682 20.228)">
    <g id="Group_106" data-name="Group 106">
      <g id="Group_43" data-name="Group 43" transform="translate(37.329 0)">
        <path id="Path_44" data-name="Path 44" d="M291.54,245.166l-6.907-2.664-3.521-3.521a1.261,1.261,0,0,0-.815-.368v-2.8a13.081,13.081,0,0,0,3.318-6.535,3.594,3.594,0,0,0,.89-.071,3.754,3.754,0,0,0,2.913-3.723v-.925a3.8,3.8,0,0,0-1.118-2.7c1.12-6.092.2-11.056-2.68-14.378-2.783-3.214-7.267-4.75-12.966-4.442a16.988,16.988,0,0,0-9.742,3.594,6.692,6.692,0,0,0-2.61.887c-1.408.845-3.088,2.621-3.088,6.28a31.715,31.715,0,0,0,.879,7.368,3.76,3.76,0,0,0-2.066,3.4v.91a3.753,3.753,0,0,0,2.913,3.723,3.593,3.593,0,0,0,.89.071,13.086,13.086,0,0,0,3.318,6.535v2.8a1.264,1.264,0,0,0-.815.368l-3.521,3.521-6.907,2.664a8.372,8.372,0,0,0-1.7.888,1.268,1.268,0,1,0,1.425,2.1,5.871,5.871,0,0,1,1.184-.62l6.41-2.472,4.9,7.351a3.628,3.628,0,0,0,2.671,1.6c.121.012.243.018.363.018a3.62,3.62,0,0,0,1.785-.472l-1.052,23.856a1.269,1.269,0,0,0,1.212,1.323h.057a1.268,1.268,0,0,0,1.266-1.213l.976-22.144h2.633l.976,22.144a1.269,1.269,0,0,0,1.266,1.213h.057a1.269,1.269,0,0,0,1.211-1.323L274.5,253.561a3.637,3.637,0,0,0,4.819-1.15l4.9-7.351,6.41,2.472a5.829,5.829,0,0,1,2.282,1.59l-4.385,4.385a8.336,8.336,0,0,0-2.457,5.932v18.035a1.268,1.268,0,1,0,2.537,0V259.439a5.814,5.814,0,0,1,1.713-4.137l3.849-3.849a5.835,5.835,0,0,1,.2,1.773l-.983,24.2a1.268,1.268,0,0,0,1.216,1.318h.053a1.268,1.268,0,0,0,1.266-1.217l.982-24.2A8.385,8.385,0,0,0,291.54,245.166Zm-31.228-16.413a2.47,2.47,0,0,0-2.569-2.013,1.065,1.065,0,0,1-.3-.02,1.229,1.229,0,0,1-.885-1.238v-.91a1.2,1.2,0,0,1,.9-1.207,1.1,1.1,0,0,1,1.085.416,1.77,1.77,0,0,0,2.431.382,9.2,9.2,0,0,0,2.079-2.034,1.268,1.268,0,0,0-2.035-1.513,6.769,6.769,0,0,1-.987,1.068,3.621,3.621,0,0,0-1.375-.735,29.172,29.172,0,0,1-.906-7.149c0-1.942.6-3.307,1.78-4.057a4.114,4.114,0,0,1,1.9-.608,1.283,1.283,0,0,0,.875-.35,14.286,14.286,0,0,1,8.488-3.211c4.888-.264,8.661.97,10.912,3.569,2.269,2.62,3.024,6.641,2.2,11.675a5.454,5.454,0,0,0-1.082.076l-1.192-2.862a1.268,1.268,0,0,0-1.491-.74c-.118.031-11.831,3-16.743-3.115a1.268,1.268,0,0,0-1.977,1.588c5.015,6.245,14.966,4.886,18.279,4.224l.922,2.212a2.084,2.084,0,0,0,2.409,1.236,2.731,2.731,0,0,1,.949-.069,1.2,1.2,0,0,1,.9,1.19v.925a1.229,1.229,0,0,1-.885,1.238,1.066,1.066,0,0,1-.3.02,2.47,2.47,0,0,0-2.568,2.013,10.584,10.584,0,0,1-20.819,0Zm5.626,22.421a1.105,1.105,0,0,1-1.7-.169L259.3,243.6l1.985-1.986,7.58,6.632Zm3.578,1.676.077-1.744,1.128-1.128,1.128,1.128.076,1.744Zm1.2-6.35-7.038-6.159v-2.427a13.125,13.125,0,0,0,14.076,0v2.427ZM277.206,251a1.105,1.105,0,0,1-1.7.169l-2.928-2.928,7.579-6.632,1.986,1.986Z" transform="translate(-247.652 -203.001)" fill="#fff"/>
      </g>
      <g id="Group_45" data-name="Group 45">
        <path id="Path_45" data-name="Path 45" d="M235.635,251.813l-6.194-2.7-3.386-3.385a1.257,1.257,0,0,0-.815-.368v-2a13.1,13.1,0,0,0,5.691-8.529,3.657,3.657,0,0,0,1-.1,3.777,3.777,0,0,0,2.8-3.7v-.925a3.783,3.783,0,0,0-1.626-3.119,14.331,14.331,0,0,0,.439-3.514,14.788,14.788,0,0,0-7.122-12.54,8.4,8.4,0,0,0-16.772,0,14.79,14.79,0,0,0-7.122,12.54,14.323,14.323,0,0,0,.437,3.5,3.788,3.788,0,0,0-1.623,3.143v.911a3.776,3.776,0,0,0,2.8,3.7,3.657,3.657,0,0,0,1,.1,13.1,13.1,0,0,0,5.691,8.529v2a1.26,1.26,0,0,0-.815.368l-3.386,3.385-6.193,2.7a8.44,8.44,0,0,0-5.025,8.042l.749,17.672a1.269,1.269,0,0,0,1.267,1.215h.054a1.268,1.268,0,0,0,1.213-1.321l-.749-17.671a5.848,5.848,0,0,1,.8-3.195l3.329,4a7.049,7.049,0,0,1,1.631,4.506v12.419a1.268,1.268,0,1,0,2.537,0V265.055a9.59,9.59,0,0,0-2.219-6.129l-3.538-4.247a5.777,5.777,0,0,1,.962-.54l5.4-2.356,3.814,6.191a2.454,2.454,0,0,0,3.684.579l2.417-2.062v20.984a1.268,1.268,0,1,0,2.537,0V256.491l2.417,2.062a2.456,2.456,0,0,0,3.684-.579l3.814-6.192,5.4,2.356a5.784,5.784,0,0,1,.962.54l-3.539,4.247a9.592,9.592,0,0,0-2.219,6.129v12.419a1.268,1.268,0,1,0,2.537,0V265.055a7.053,7.053,0,0,1,1.631-4.506l3.329-3.994a5.833,5.833,0,0,1,.8,3.194l-.749,17.672a1.268,1.268,0,0,0,1.213,1.321h.055a1.268,1.268,0,0,0,1.266-1.215l.749-17.671A8.441,8.441,0,0,0,235.635,251.813Zm-17.6-46.276a5.811,5.811,0,0,1,5.648,4.054,16.091,16.091,0,0,0-11.3,0A5.811,5.811,0,0,1,218.04,205.537Zm-10.41,28.772a2.47,2.47,0,0,0-2.568-2.013,1.1,1.1,0,0,1-.332-.028,1.238,1.238,0,0,1-.848-1.23v-.911a1.2,1.2,0,0,1,.895-1.206,1.1,1.1,0,0,1,1.085.415,1.769,1.769,0,0,0,2.431.382,9.206,9.206,0,0,0,2.053-2,1.268,1.268,0,0,0-2.029-1.523,6.656,6.656,0,0,1-.968,1.04,3.634,3.634,0,0,0-1.914-.842,11.783,11.783,0,0,1-.368-2.915c0-6.825,5.819-12.378,12.972-12.378s12.971,5.553,12.971,12.378a11.8,11.8,0,0,1-.366,2.909,5.891,5.891,0,0,0-.987.163l-.953-.784a2.434,2.434,0,0,0-1.693-.555c-1.864.11-11.412.362-16.311-5.5a1.268,1.268,0,1,0-1.946,1.626c2.416,2.891,5.959,4.847,10.532,5.811a31.069,31.069,0,0,0,7.832.6l1.488,1.223a1.266,1.266,0,0,0,1.442.118,2.8,2.8,0,0,1,1.25-.167,1.2,1.2,0,0,1,.9,1.19v.925a1.238,1.238,0,0,1-.848,1.23,1.1,1.1,0,0,1-.332.028,2.473,2.473,0,0,0-2.568,2.013,10.585,10.585,0,0,1-20.82,0Zm5.151,22.252-3.814-6.192,1.954-1.954,5.253,5.252Zm5.26-4.615-4.665-4.665v-2.624a13.119,13.119,0,0,0,9.33,0v2.624Zm5.259,4.615-3.392-2.895,5.253-5.252,1.954,1.954Z" transform="translate(-195.412 -203)" fill="#fff"/>
      </g>
    </g>
  </g>
</svg>
