<svg id="HomePage" xmlns="http://www.w3.org/2000/svg" width="840.5" height="427.813" viewBox="0 0 840.5 427.813">
  <g id="Group_126" data-name="Group 126">
    <ellipse id="Ellipse_50" data-name="Ellipse 50" cx="29.099" cy="59.374" rx="29.099" ry="59.374" transform="translate(151.773 269.291)" fill="#f2dbdb"/>
    <path id="Path_177" data-name="Path 177" d="M363.309,662c-11.655-69.925-.117-139.6,0-140.293l2.267.384c-.117.692-11.588,70,0,139.532Z" transform="translate(-179.75 -236.147)" fill="#bea2a2"/>
    <rect id="Rectangle_89" data-name="Rectangle 89" width="29.841" height="2.3" transform="translate(180.175 329.971) rotate(-28.142)" fill="#bea2a2"/>
    <rect id="Rectangle_90" data-name="Rectangle 90" width="2.3" height="29.842" transform="translate(152.404 324.973) rotate(-61.842)" fill="#bea2a2"/>
    <path id="Path_183" data-name="Path 183" d="M0,0H47.694V165.095H0Z" transform="translate(720.059 3.963)" fill="#bea2a2"/>
    <path id="Path_178" data-name="Path 178" d="M799.25,138,683.25,0,450.4,2.129,309.156,139.707l2.854,1.835h-1.019V427.706H798.937V141.542Z" fill="#bea2a2"/>
    <path id="Path_179" data-name="Path 179" d="M683.371.294l-144.916,169.9V427.706H798.937V137.873Z" fill="#edcaa7"/>
    <rect id="Rectangle_92" data-name="Rectangle 92" width="53.197" height="47.02" transform="translate(643.015 285.298)" fill="#3f3d56"/>
    <rect id="Rectangle_93" data-name="Rectangle 93" width="53.197" height="46.275" transform="translate(643.015 203.911)" fill="#3f3d56"/>
    <rect id="Rectangle_94" data-name="Rectangle 94" width="53.197" height="47.02" transform="translate(643.015 285.298)" fill="#fff"/>
    <rect id="Rectangle_95" data-name="Rectangle 95" width="53.197" height="46.275" transform="translate(643.015 203.911)" fill="#fff"/>
    <path id="Path_180" data-name="Path 180" d="M682.079,655.462s1.14-23.9,24.519-21.118" transform="translate(-179.75 -236.147)" fill="#e6e6e6"/>
    <circle id="Ellipse_51" data-name="Ellipse 51" cx="11.701" cy="11.701" r="11.701" transform="translate(484.023 373.173)" fill="#edcaa7"/>
    <rect id="Rectangle_96" data-name="Rectangle 96" width="3.303" height="23.12" transform="translate(493.82 404.578)" fill="#e6e6e6"/>
    <ellipse id="Ellipse_52" data-name="Ellipse 52" cx="56.915" cy="116.129" rx="56.915" ry="116.129" transform="translate(54.04 120.967)" fill="#edcaa7"/>
    <path id="Path_181" data-name="Path 181" d="M297.045,663.148c-22.765-136.585-.23-272.673,0-274.032l2.267.384c-.23,1.355-22.7,137.077,0,273.27Z" transform="translate(-179.75 -236.147)" fill="#bea2a2"/>
    <rect id="Rectangle_97" data-name="Rectangle 97" width="58.368" height="2.3" transform="translate(110.112 240.621) rotate(-28.142)" fill="#bea2a2"/>
    <rect id="Rectangle_98" data-name="Rectangle 98" width="2.3" height="58.368" transform="translate(55.796 228.915) rotate(-61.842)" fill="#bea2a2"/>
    <ellipse id="Ellipse_53" data-name="Ellipse 53" cx="77.883" cy="158.914" rx="77.883" ry="158.914" transform="translate(167.87 8.287)" fill="#edcaa7"/>
    <path id="Path_182" data-name="Path 182" d="M434.6,663.148c-31.14-186.837-.314-372.992,0-374.851l2.267.384c-.314,1.855-31.074,187.644,0,374.089Z" transform="translate(-179.75 -236.147)" fill="#bea2a2"/>
    <rect id="Rectangle_99" data-name="Rectangle 99" width="79.871" height="2.3" transform="translate(244.801 172.399) rotate(-28.142)" fill="#bea2a2"/>
    <path id="Path_184" data-name="Path 184" d="M0,0H2.3V79.871H0V0Z" transform="matrix(0.472, -0.882, 0.882, 0.472, 170.472, 155.626)" fill="#bea2a2"/>
    <rect id="Rectangle_101" data-name="Rectangle 101" width="840.5" height="2" transform="translate(0 425.813)" fill="#bea2a2"/>
    <rect id="Rectangle_102" data-name="Rectangle 102" width="53.197" height="47.02" transform="translate(406.602 272.821)" fill="#3f3d56"/>
    <rect id="Rectangle_103" data-name="Rectangle 103" width="53.197" height="46.275" transform="translate(406.602 191.434)" fill="#3f3d56"/>
    <rect id="Rectangle_104" data-name="Rectangle 104" width="53.197" height="47.02" transform="translate(406.602 272.821)" fill="#fff"/>
    <rect id="Rectangle_105" data-name="Rectangle 105" width="53.197" height="46.275" transform="translate(406.602 191.434)" fill="#fff"/>
  </g>
</svg>
