<svg id="Journal_Button" xmlns="http://www.w3.org/2000/svg" width="247.569" height="247.569" viewBox="0 0 247.569 247.569">
  <rect id="Rectangle_31" data-name="Rectangle 31" width="247.569" height="247.569" rx="27" fill="#edcaa7"/>
  <text id="Journal" transform="translate(125.569 214.739)" fill="#fff" font-size="29" font-family="ArialMT, Arial"><tspan x="-47.557" y="0">Journal</tspan></text>
  <g id="Group_40" data-name="Group 40" transform="translate(58.426 32.184)">
    <path id="Path_37" data-name="Path 37" d="M302.319,230.684V200.976a2.476,2.476,0,0,0-2.476-2.476H235.476A2.476,2.476,0,0,0,233,200.976v29.708a2.476,2.476,0,0,0,2.476,2.476h64.368A2.476,2.476,0,0,0,302.319,230.684Zm-4.951-2.476H237.951V203.451h59.417Z" transform="translate(-190.913 -186.122)" fill="#fff"/>
    <path id="Path_38" data-name="Path 38" d="M201.327,298.406a7.427,7.427,0,0,0,0,14.854H203.8v9.9a12.393,12.393,0,0,0,12.378,12.378H325.112a2.476,2.476,0,0,0,2.476-2.476V194.427a2.476,2.476,0,0,0-2.476-2.476h-7.427v-2.476A2.476,2.476,0,0,0,315.209,187H206.278a2.476,2.476,0,0,0-2.476,2.476v9.9h-2.476a7.427,7.427,0,1,0,0,14.854H203.8v9.9h-2.476a7.427,7.427,0,0,0,0,14.854H203.8v9.9h-2.476a7.427,7.427,0,0,0,0,14.854H203.8v9.9h-2.476a7.427,7.427,0,0,0,0,14.854H203.8v9.9Zm-2.476,7.427a2.477,2.477,0,0,1,2.476-2.476h9.9a2.476,2.476,0,1,1,0,4.951h-9.9A2.477,2.477,0,0,1,198.851,305.833ZM228.56,191.951h84.174V320.687H228.56Zm86.649,133.687a2.476,2.476,0,0,0,2.476-2.476V196.9h4.951V330.59H216.181a7.439,7.439,0,0,1-7-4.951ZM201.327,209.281a2.476,2.476,0,1,1,0-4.951h9.9a2.476,2.476,0,1,1,0,4.951Zm-2.476,22.281a2.477,2.477,0,0,1,2.476-2.476h9.9a2.476,2.476,0,1,1,0,4.951h-9.9A2.477,2.477,0,0,1,198.851,231.562Zm0,24.757a2.477,2.477,0,0,1,2.476-2.476h9.9a2.476,2.476,0,1,1,0,4.951h-9.9A2.477,2.477,0,0,1,198.851,256.319Zm0,24.757a2.478,2.478,0,0,1,2.476-2.476h9.9a2.476,2.476,0,1,1,0,4.951h-9.9A2.477,2.477,0,0,1,198.851,281.076Zm9.9,7.427h2.476a7.427,7.427,0,1,0,0-14.854h-2.476v-9.9h2.476a7.427,7.427,0,1,0,0-14.854h-2.476v-9.9h2.476a7.427,7.427,0,1,0,0-14.854h-2.476v-9.9h2.476a7.427,7.427,0,1,0,0-14.854h-2.476v-7.427h14.854V320.687H208.754V313.26h2.476a7.427,7.427,0,1,0,0-14.854h-2.476Z" transform="translate(-193.9 -187)" fill="#fff"/>
    <path id="Path_39" data-name="Path 39" d="M274.927,299.7h-4.951a2.476,2.476,0,0,0,0,4.951h4.951a2.476,2.476,0,0,0,0-4.951Z" transform="translate(-188.278 -178.391)" fill="#fff"/>
    <path id="Path_40" data-name="Path 40" d="M274.927,290.5h-4.951a2.476,2.476,0,1,0,0,4.951h4.951a2.476,2.476,0,1,0,0-4.951Z" transform="translate(-188.278 -179.094)" fill="#fff"/>
    <path id="Path_41" data-name="Path 41" d="M298.63,299.7H283.776a2.476,2.476,0,0,0,0,4.951H298.63a2.476,2.476,0,1,0,0-4.951Z" transform="translate(-187.224 -178.391)" fill="#fff"/>
    <path id="Path_42" data-name="Path 42" d="M298.63,290.5H283.776a2.476,2.476,0,1,0,0,4.951H298.63a2.476,2.476,0,1,0,0-4.951Z" transform="translate(-187.224 -179.094)" fill="#fff"/>
  </g>
</svg>
