<svg id="Journal_Button" xmlns="http://www.w3.org/2000/svg" width="198.694" height="198.694" viewBox="0 0 198.694 198.694">
  <g id="Group_134" data-name="Group 134" transform="translate(-545.431 -635.261)">
    <g id="Journal_Button-2" data-name="Journal_Button" transform="translate(545.431 635.261)">
      <rect id="Rectangle_31" data-name="Rectangle 31" width="198.694" height="198.694" rx="27" fill="#edcaa7"/>
      <text id="Journal" transform="translate(98.569 171.739)" fill="#fff" font-size="22" font-family="ArialMT, Arial"><tspan x="-36.078" y="0">Journal</tspan></text>
      <g id="Group_40" data-name="Group 40" transform="translate(46.892 25.83)">
        <path id="Path_37" data-name="Path 37" d="M288.634,224.33V200.487a1.987,1.987,0,0,0-1.987-1.987H234.987A1.987,1.987,0,0,0,233,200.487V224.33a1.987,1.987,0,0,0,1.987,1.987h51.661A1.987,1.987,0,0,0,288.634,224.33Zm-3.974-1.987H236.974V202.474h47.687Z" transform="translate(-199.222 -188.565)" fill="#fff"/>
        <path id="Path_38" data-name="Path 38" d="M199.861,276.412a5.961,5.961,0,1,0,0,11.922h1.987v7.948a9.946,9.946,0,0,0,9.935,9.935h87.426a1.987,1.987,0,0,0,1.987-1.987V192.961a1.987,1.987,0,0,0-1.987-1.987h-5.961v-1.987A1.987,1.987,0,0,0,291.26,187H203.835a1.987,1.987,0,0,0-1.987,1.987v7.948h-1.987a5.961,5.961,0,1,0,0,11.922h1.987V216.8h-1.987a5.961,5.961,0,0,0,0,11.922h1.987v7.948h-1.987a5.961,5.961,0,1,0,0,11.922h1.987v7.948h-1.987a5.961,5.961,0,1,0,0,11.922h1.987v7.948Zm-1.987,5.961a1.988,1.988,0,0,1,1.987-1.987h7.948a1.987,1.987,0,1,1,0,3.974h-7.948A1.988,1.988,0,0,1,197.874,282.373Zm23.843-91.4h67.556V294.295H221.717ZM291.26,298.269a1.987,1.987,0,0,0,1.987-1.987V194.948h3.974V302.243H211.782a5.97,5.97,0,0,1-5.619-3.974Zm-91.4-93.386a1.987,1.987,0,1,1,0-3.974h7.948a1.987,1.987,0,1,1,0,3.974Zm-1.987,17.882a1.988,1.988,0,0,1,1.987-1.987h7.948a1.987,1.987,0,1,1,0,3.974h-7.948A1.988,1.988,0,0,1,197.874,222.765Zm0,19.869a1.988,1.988,0,0,1,1.987-1.987h7.948a1.987,1.987,0,1,1,0,3.974h-7.948A1.988,1.988,0,0,1,197.874,242.634Zm0,19.869a1.988,1.988,0,0,1,1.987-1.987h7.948a1.987,1.987,0,0,1,0,3.974h-7.948A1.988,1.988,0,0,1,197.874,262.5Zm7.948,5.961h1.987a5.961,5.961,0,1,0,0-11.922h-1.987V248.6h1.987a5.961,5.961,0,1,0,0-11.922h-1.987v-7.948h1.987a5.961,5.961,0,0,0,0-11.922h-1.987v-7.948h1.987a5.961,5.961,0,1,0,0-11.922h-1.987v-5.961h11.922V294.295H205.822v-5.961h1.987a5.961,5.961,0,1,0,0-11.922h-1.987Z" transform="translate(-193.9 -187)" fill="#fff"/>
        <path id="Path_39" data-name="Path 39" d="M273.461,299.7h-3.974a1.987,1.987,0,1,0,0,3.974h3.974a1.987,1.987,0,0,0,0-3.974Z" transform="translate(-203.918 -202.34)" fill="#fff"/>
        <path id="Path_40" data-name="Path 40" d="M273.461,290.5h-3.974a1.987,1.987,0,1,0,0,3.974h3.974a1.987,1.987,0,0,0,0-3.974Z" transform="translate(-203.918 -201.088)" fill="#fff"/>
        <path id="Path_41" data-name="Path 41" d="M295.209,299.7H283.287a1.987,1.987,0,1,0,0,3.974h11.922a1.987,1.987,0,0,0,0-3.974Z" transform="translate(-205.796 -202.34)" fill="#fff"/>
        <path id="Path_42" data-name="Path 42" d="M295.209,290.5H283.287a1.987,1.987,0,1,0,0,3.974h11.922a1.987,1.987,0,0,0,0-3.974Z" transform="translate(-205.796 -201.088)" fill="#fff"/>
      </g>
    </g>
  </g>
</svg>
