<svg id="Mental_Hygiene_Button" xmlns="http://www.w3.org/2000/svg" width="495.54" height="155.942" viewBox="0 0 495.54 155.942">
  <g id="Group_59" data-name="Group 59">
    <path id="Path_48" data-name="Path 48" d="M44.9,0H450.642c24.8,0,44.9,11.605,44.9,25.921v104.1c0,14.316-20.1,25.921-44.9,25.921H44.9c-24.8,0-44.9-11.605-44.9-25.921V25.921C0,11.605,20.1,0,44.9,0Z" transform="translate(0 0)" fill="#edcaa7"/>
    <text id="Mental_Hygiene:_101" data-name="Mental Hygiene: 101" transform="translate(275.997 84.53)" fill="#fff" font-size="26" font-family="Arial-BoldMT, Arial" font-weight="700"><tspan x="-124.985" y="0">Mental Hygiene: 101</tspan></text>
  </g>
  <g id="Group_72" data-name="Group 72" transform="translate(28.903 25.142)">
    <path id="Path_53" data-name="Path 53" d="M217.161,255.163H202.094a1.62,1.62,0,0,0-1.62,1.62,9.7,9.7,0,0,0,9.721,9.721h14.581a1.621,1.621,0,0,0,1.481-.962l3.38-7.6v11.136l-4.532,4.533-13.59-1.43a8.528,8.528,0,1,0-.892,17.009h63.956a8.522,8.522,0,0,0,.016-17.043,7.419,7.419,0,0,0-.914.041L260.1,273.612l-4.538-4.539V257.937l3.38,7.6a1.621,1.621,0,0,0,1.481.962H275a9.7,9.7,0,0,0,9.721-9.721,1.62,1.62,0,0,0-1.62-1.62H268.033l-3-8.211a14.38,14.38,0,0,0-2.9-4.754c11.2-.05,20.069-8.183,20.443-8.531a1.621,1.621,0,0,0,0-2.371c-.335-.31-7.536-6.89-17.11-8.267,5.829-7.752,6.268-17.526,6.284-17.983a1.621,1.621,0,0,0-.473-1.2,1.582,1.582,0,0,0-1.2-.474c-.458.017-10.263.456-18.021,6.313-1.352-9.612-7.965-16.85-8.277-17.187a1.671,1.671,0,0,0-2.373,0c-.313.336-6.925,7.574-8.277,17.187-7.758-5.857-17.563-6.3-18.021-6.313a1.569,1.569,0,0,0-1.2.474,1.621,1.621,0,0,0-.473,1.2c.016.455.451,10.178,6.3,17.982-9.581,1.372-16.789,7.958-17.124,8.268a1.621,1.621,0,0,0,0,2.371c.374.347,9.242,8.48,20.441,8.531a14.37,14.37,0,0,0-2.892,4.747Zm7.015,30.782H210.622a5.293,5.293,0,0,1-5.288-5.288,5.291,5.291,0,0,1,5.269-5.289,5.4,5.4,0,0,1,.573.03l50.118,5.275a2.643,2.643,0,0,1-.277,5.271ZM274.05,275.4a4.144,4.144,0,0,1,.544-.02,5.282,5.282,0,0,1-.016,10.563h-8.336a5.806,5.806,0,0,0,.656-2.643,5.87,5.87,0,0,0-5.267-5.85l-3.528-.372Zm-8.673-18.064A1.619,1.619,0,0,0,266.9,258.4h14.379A6.45,6.45,0,0,1,275,263.263H261.471l-6.052-13.62a1.62,1.62,0,0,0-3.1.659v19.441a1.621,1.621,0,0,0,.474,1.145l3.159,3.159-13.326,1.4-13.376-1.408,3.153-3.154a1.621,1.621,0,0,0,.474-1.145V250.3a1.62,1.62,0,0,0-3.1-.659l-6.052,13.62H210.195a6.449,6.449,0,0,1-6.278-4.861H218.3a1.619,1.619,0,0,0,1.522-1.065l3.39-9.29a11.329,11.329,0,0,1,10.641-7.466h17.5a11.334,11.334,0,0,1,10.645,7.473Zm-26.653-20a37.783,37.783,0,0,0,3.874-2.732,37.787,37.787,0,0,0,3.874,2.732Zm23.315,1.62c-6.356,0-12.029-3.092-15.327-5.35,4.2-.754,10.875-2.692,16.087-7.585,7.189.277,13.422,4.375,16.134,6.454C276.127,234.635,269.552,238.962,262.038,238.962Zm-1.064-15.646c-4.521,4.522-10.76,6.341-14.685,7.068,2.444-3.512,5.794-9.6,6-16.678,5.291-4.951,12.649-6.471,16.052-6.919-.457,3.487-2.038,11.143-7.366,16.528ZM242.6,196.144c2.154,2.8,6.479,9.359,6.479,16.9,0,7.513-4.33,14.091-6.482,16.9-2.154-2.8-6.479-9.359-6.479-16.9C236.117,205.526,240.447,198.948,242.6,196.144Zm-9.693,17.563c.2,7.084,3.557,13.168,6,16.681-3.924-.728-10.175-2.559-14.761-7.145-5.256-5.312-6.831-12.968-7.29-16.457C220.254,207.227,227.6,208.739,232.906,213.706Zm-10.518,12.32c5.169,4.9,11.873,6.835,16.092,7.588-3.3,2.258-8.971,5.348-15.324,5.348-7.514,0-14.089-4.327-16.894-6.481C208.973,230.4,215.2,226.306,222.388,226.026Z" transform="translate(-200.474 -192)" fill="#fff"/>
    <path id="Path_54" data-name="Path 54" d="M253.864,260.311H257.1v3.24h-3.241Z" transform="translate(-213.361 -208.489)" fill="#fff"/>
    <path id="Path_55" data-name="Path 55" d="M253.864,268.853H257.1v3.24h-3.241Z" transform="translate(-213.361 -210.551)" fill="#fff"/>
    <path id="Path_56" data-name="Path 56" d="M253.864,277.4H257.1v3.241h-3.241Z" transform="translate(-213.361 -212.613)" fill="#fff"/>
  </g>
</svg>
