<svg id="Mental_Hygiene_Button" xmlns="http://www.w3.org/2000/svg" width="412.406" height="129.78" viewBox="0 0 412.406 129.78">
  <g id="Mental_Hygiene_Button-2" data-name="Mental_Hygiene_Button">
    <g id="Group_59" data-name="Group 59" transform="translate(0 0)">
      <path id="Path_48" data-name="Path 48" d="M37.366,0H375.041c20.636,0,37.366,9.658,37.366,21.572v86.636c0,11.914-16.729,21.572-37.366,21.572H37.366C16.729,129.78,0,120.122,0,108.208V21.572C0,9.658,16.729,0,37.366,0Z" fill="#edcaa7"/>
      <text id="Mental_Hygiene:_101" data-name="Mental Hygiene: 101" transform="translate(226.665 69.375)" fill="#fff" font-size="21" font-family="Arial-BoldMT, Arial" font-weight="700"><tspan x="-100.95" y="0">Mental Hygiene: 101</tspan></text>
    </g>
    <g id="Group_72" data-name="Group 72" transform="translate(24.054 20.924)">
      <path id="Path_53" data-name="Path 53" d="M214.362,244.566H201.823a1.348,1.348,0,0,0-1.349,1.348,8.07,8.07,0,0,0,8.09,8.09H220.7a1.349,1.349,0,0,0,1.232-.8l2.813-6.329v9.268l-3.772,3.772-11.31-1.19a7.1,7.1,0,1,0-.742,14.156h53.227a7.092,7.092,0,0,0,.013-14.184,6.174,6.174,0,0,0-.761.034l-11.305,1.19-3.777-3.777v-9.268l2.813,6.329a1.349,1.349,0,0,0,1.232.8H262.5a8.071,8.071,0,0,0,8.09-8.09,1.348,1.348,0,0,0-1.349-1.348H256.7l-2.493-6.834a11.967,11.967,0,0,0-2.41-3.957c9.321-.042,16.7-6.81,17.013-7.1a1.349,1.349,0,0,0,0-1.974c-.278-.258-6.272-5.734-14.24-6.88,4.851-6.451,5.216-14.586,5.229-14.966a1.349,1.349,0,0,0-.394-1,1.316,1.316,0,0,0-1-.395c-.381.014-8.542.379-15,5.254-1.125-8-6.629-14.024-6.889-14.3a1.391,1.391,0,0,0-1.975,0c-.26.28-5.764,6.3-6.889,14.3-6.456-4.875-14.616-5.24-15-5.254a1.306,1.306,0,0,0-1,.395,1.349,1.349,0,0,0-.394,1c.013.379.376,8.47,5.241,14.965-7.973,1.142-13.972,6.623-14.251,6.881a1.349,1.349,0,0,0,0,1.974c.311.289,7.692,7.057,17.012,7.1a11.959,11.959,0,0,0-2.407,3.95Zm5.838,25.618H208.92a4.4,4.4,0,0,1-4.4-4.4,4.4,4.4,0,0,1,4.385-4.4,4.5,4.5,0,0,1,.477.025l41.71,4.39a2.2,2.2,0,0,1-.23,4.387Zm41.507-8.775a3.454,3.454,0,0,1,.453-.016,4.4,4.4,0,0,1-.013,8.791h-6.937a4.832,4.832,0,0,0,.546-2.2,4.886,4.886,0,0,0-4.383-4.869l-2.936-.309Zm-7.218-15.033a1.347,1.347,0,0,0,1.266.886h11.967a5.367,5.367,0,0,1-5.225,4.045H251.238L246.2,239.973a1.348,1.348,0,0,0-2.58.548V256.7a1.349,1.349,0,0,0,.395.953l2.629,2.629-11.09,1.167-11.132-1.172,2.624-2.625a1.349,1.349,0,0,0,.395-.953v-16.18a1.348,1.348,0,0,0-2.58-.548l-5.037,11.335H208.564a5.367,5.367,0,0,1-5.225-4.045h11.967a1.347,1.347,0,0,0,1.266-.886l2.821-7.731a9.428,9.428,0,0,1,8.856-6.214h14.563a9.433,9.433,0,0,1,8.859,6.219Zm-22.182-16.642a31.445,31.445,0,0,0,3.224-2.273,31.449,31.449,0,0,0,3.224,2.273Zm19.4,1.349c-5.289,0-10.011-2.573-12.756-4.452a26.687,26.687,0,0,0,13.388-6.313c5.983.23,11.17,3.641,13.428,5.372C263.435,227.482,257.964,231.083,251.71,231.083Zm-.886-13.021c-3.763,3.763-8.955,5.277-12.221,5.882,2.034-2.923,4.822-7.986,4.993-13.88,4.4-4.12,10.527-5.385,13.359-5.758-.381,2.9-1.7,9.273-6.13,13.755Zm-15.293-22.614c1.792,2.329,5.392,7.789,5.392,14.061,0,6.253-3.6,11.727-5.394,14.062-1.792-2.33-5.392-7.789-5.392-14.062C230.137,203.257,233.741,197.783,235.532,195.449Zm-8.067,14.616c.17,5.9,2.96,10.959,4.995,13.882-3.266-.606-8.468-2.13-12.285-5.947-4.374-4.421-5.685-10.792-6.067-13.7C216.935,204.673,223.048,205.931,227.465,210.065Zm-8.753,10.253c4.3,4.077,9.881,5.688,13.392,6.315-2.746,1.879-7.466,4.45-12.753,4.45-6.254,0-11.725-3.6-14.06-5.394C207.547,223.959,212.732,220.551,218.712,220.318Z" transform="translate(-200.474 -192)" fill="#fff"/>
      <path id="Path_54" data-name="Path 54" d="M253.864,260.311h2.7v2.7h-2.7Z" transform="translate(-220.156 -217.183)" fill="#fff"/>
      <path id="Path_55" data-name="Path 55" d="M253.864,268.853h2.7v2.7h-2.7Z" transform="translate(-220.156 -220.332)" fill="#fff"/>
      <path id="Path_56" data-name="Path 56" d="M253.864,277.4h2.7v2.7h-2.7Z" transform="translate(-220.156 -223.481)" fill="#fff"/>
    </g>
  </g>
</svg>
