<svg id="My_Profile_Button" xmlns="http://www.w3.org/2000/svg" width="199" height="200" viewBox="0 0 199 200">
  <g id="Group_135" data-name="Group 135" transform="translate(-545 -350)">
    <g id="My_Profile_Button-2" data-name="My_Profile_Button" transform="translate(545 350)">
      <g id="Group_104" data-name="Group 104">
        <rect id="Rectangle_31" data-name="Rectangle 31" width="199" height="200" rx="27" fill="#edcaa7"/>
        <text id="My_Account" data-name="My Account" transform="translate(97.587 169.412)" fill="#fff" font-size="25" font-family="ArialMT, Arial"><tspan x="-64.612" y="0">My Account</tspan></text>
      </g>
      <path id="Icon_awesome-user" data-name="Icon awesome-user" d="M47.625,54.429A27.214,27.214,0,1,0,20.411,27.214,27.212,27.212,0,0,0,47.625,54.429Zm19.05,6.8H63.125a37.011,37.011,0,0,1-31,0H28.575A28.583,28.583,0,0,0,0,89.808v8.845a10.208,10.208,0,0,0,10.205,10.205h74.84A10.208,10.208,0,0,0,95.25,98.652V89.808A28.583,28.583,0,0,0,66.675,61.232Z" transform="translate(54.759 34.01)" fill="#fff"/>
    </g>
  </g>
</svg>
