<svg id="Track_Thinking_Button" xmlns="http://www.w3.org/2000/svg" width="495.54" height="149.597" viewBox="0 0 495.54 149.597">
  <g id="Group_58" data-name="Group 58">
    <path id="Path_48" data-name="Path 48" d="M44.9,0H450.642c24.8,0,44.9,11.133,44.9,24.866v99.865c0,13.733-20.1,24.866-44.9,24.866H44.9C20.1,149.6,0,138.464,0,124.731V24.866C0,11.133,20.1,0,44.9,0Z" transform="translate(0 0)" fill="#edcaa7"/>
    <text id="Track_your_Unhealthy_Thinking_Patterns" data-name="Track your Unhealthy 
Thinking Patterns" transform="translate(283.432 67.74)" fill="#fff" font-size="27" font-family="Arial-BoldMT, Arial" font-weight="700"><tspan x="-141.045" y="0">Track your Unhealthy </tspan><tspan x="-114.012" y="31">Thinking Patterns</tspan></text>
  </g>
  <path id="Icon_awesome-brain" data-name="Icon awesome-brain" d="M26.653,0a8.327,8.327,0,0,0-7.919,6.678c-.1,0-.179-.028-.282-.028-4.523,0-8.2,3.976-8.2,8.867a8.8,8.8,0,0,0,.218,1.94A11.118,11.118,0,0,0,4.1,27.71a11.836,11.836,0,0,0,1.064,4.835A11.451,11.451,0,0,0,6.33,52.358a10.951,10.951,0,0,0-.179,1.954c0,5.514,4.126,9.976,9.226,9.976a8.058,8.058,0,0,0,1.538-.166,9.3,9.3,0,0,0,8.713,6.817c5.1,0,9.226-4.461,9.226-9.976V8.867C34.854,3.976,31.176,0,26.653,0ZM73.808,42.119a11.2,11.2,0,0,0-5.164-9.574,11.632,11.632,0,0,0,1.064-4.835,11.118,11.118,0,0,0-6.368-10.253,9.646,9.646,0,0,0,.218-1.94c0-4.891-3.678-8.867-8.2-8.867-.1,0-.192.028-.282.028A8.327,8.327,0,0,0,47.155,0c-4.523,0-8.2,3.963-8.2,8.867V60.962c0,5.514,4.126,9.976,9.226,9.976a9.3,9.3,0,0,0,8.713-6.817,8.058,8.058,0,0,0,1.538.166c5.1,0,9.226-4.461,9.226-9.976a10.951,10.951,0,0,0-.179-1.954A11.123,11.123,0,0,0,73.808,42.119Z" transform="translate(37.903 39.374)" fill="#fff"/>
</svg>
