<svg id="Track_Thinking_Button" xmlns="http://www.w3.org/2000/svg" width="412.406" height="124.5" viewBox="0 0 412.406 124.5">
  <g id="Track_Thinking_Button-2" data-name="Track_Thinking_Button">
    <g id="Group_58" data-name="Group 58" transform="translate(0 0)">
      <path id="Path_48" data-name="Path 48" d="M37.366,0H375.041c20.636,0,37.366,9.265,37.366,20.694v83.111c0,11.429-16.729,20.694-37.366,20.694H37.366C16.729,124.5,0,115.235,0,103.806V20.694C0,9.265,16.729,0,37.366,0Z" fill="#edcaa7"/>
      <text id="Track_your_Unhealthy_Thinking_Patterns" data-name="Track your Unhealthy 
Thinking Patterns" transform="translate(228.537 55.402)" fill="#fff" font-size="21" font-family="Arial-BoldMT, Arial" font-weight="700"><tspan x="-109.701" y="0">Track your Unhealthy </tspan><tspan x="-88.676" y="24">Thinking Patterns</tspan></text>
    </g>
    <path id="Icon_awesome-brain" data-name="Icon awesome-brain" d="M22.181,0a6.93,6.93,0,0,0-6.59,5.558c-.085,0-.149-.023-.235-.023a7.125,7.125,0,0,0-6.825,7.38,7.325,7.325,0,0,0,.181,1.614,9.253,9.253,0,0,0-5.3,8.533A9.85,9.85,0,0,0,4.3,27.085a9.53,9.53,0,0,0,.97,16.489A9.114,9.114,0,0,0,5.119,45.2c0,4.589,3.434,8.3,7.678,8.3a6.706,6.706,0,0,0,1.28-.138,7.74,7.74,0,0,0,7.252,5.673c4.244,0,7.678-3.713,7.678-8.3V7.38A7.125,7.125,0,0,0,22.181,0ZM61.426,35.053a9.325,9.325,0,0,0-4.3-7.968,9.681,9.681,0,0,0,.885-4.024,9.253,9.253,0,0,0-5.3-8.533,8.028,8.028,0,0,0,.181-1.614,7.125,7.125,0,0,0-6.825-7.38c-.085,0-.16.023-.235.023A6.93,6.93,0,0,0,39.244,0a7.118,7.118,0,0,0-6.825,7.38V50.735c0,4.589,3.434,8.3,7.678,8.3a7.74,7.74,0,0,0,7.252-5.673,6.707,6.707,0,0,0,1.28.138c4.244,0,7.678-3.713,7.678-8.3a9.114,9.114,0,0,0-.149-1.626A9.257,9.257,0,0,0,61.426,35.053Z" transform="translate(31.545 32.768)" fill="#fff"/>
  </g>
</svg>
