<?xml version="1.0" encoding="utf-8"?>
<!-- Generator: Adobe Illustrator 24.3.0, SVG Export Plug-In . SVG Version: 6.00 Build 0)  -->
<svg version="1.1" id="Layer_1" xmlns="http://www.w3.org/2000/svg" xmlns:xlink="http://www.w3.org/1999/xlink" x="0px" y="0px"
	 viewBox="0 0 200 31.2" style="enable-background:new 0 0 200 31.2;" xml:space="preserve">
<style type="text/css">
	.st0{fill:#FFFFFF;}
	.st1{enable-background:new    ;}
</style>
<g>
	<g>
		<path id="Icon_awesome-door-open_2_" class="st0" d="M92.7,23h-4.1V5.8c0-1.4-1.1-2.5-2.5-2.5l0,0h-5.7v3.3h4.9v19.7h7.4
			c0.5,0,0.8-0.4,0.8-0.8v-1.6C93.5,23.3,93.2,23,92.7,23z M76.7,0l-9.8,2.5c-0.7,0.2-1.3,0.9-1.2,1.6V23h-4.1
			c-0.5,0-0.8,0.4-0.8,0.8v1.6c0,0.5,0.4,0.8,0.8,0.8h17.2V1.7c0-0.9-0.7-1.7-1.6-1.7C77,0,76.9,0,76.7,0L76.7,0z M74.2,14.8
			c-0.7,0-1.2-0.7-1.2-1.6s0.6-1.6,1.2-1.6s1.2,0.7,1.2,1.6S74.9,14.8,74.2,14.8z"/>
	</g>
	<g class="st1">
		<path class="st0" d="M0,25.4V7.7h6l3.3,11.4l3.2-11.4h6.1v17.6h-4.1l0.1-13.2l-3.8,13.2h-3L4,12.2l0.1,13.2H0z"/>
		<path class="st0" d="M21.2,7.7h4v3h-4V7.7z M21.2,12.1h4v13.2h-4V12.1z"/>
		<path class="st0" d="M27.4,12.1h3.7v1.4c0.5-0.6,1.3-1.9,3.6-1.9c4.5,0,4.9,3.6,4.9,5.4v8.3h-4v-7.2c0-1.5-0.3-2.7-2.1-2.7
			c-2,0-2.3,1.4-2.3,2.8v7.2h-4V12.1H27.4z"/>
		<path class="st0" d="M56.2,25.4h-3.8V24c-0.4,0.5-1.3,1.9-4,1.9c-4,0-6.6-3.1-6.6-7.1c0-4.5,3.2-7,6.6-7c2.3,0,3.5,1.1,3.9,1.6V12
			V7.7h4v17.7H56.2z M45.8,18.7c0,2,1.5,3.4,3.3,3.4c1,0,1.8-0.4,2.5-1c0.6-0.6,1-1.5,0.9-2.5c0-1-0.4-1.8-1-2.3
			c-0.6-0.6-1.4-0.9-2.4-0.9C46.9,15.4,45.8,17.2,45.8,18.7L45.8,18.7z"/>
	</g>
	<g class="st1">
		<path class="st0" d="M103.8,7.7c3.3,0,4.5,0.5,5.4,1.3c1.4,1.1,2.1,2.9,2.1,4.7s-0.7,3.7-1.9,4.6c-1.2,1-2.4,1.5-5.1,1.5h-1.8v5.5
			H98V7.7H103.8z M102.5,15.9h1.6c0.4,0,1.1,0,1.7-0.3s1.1-0.8,1.1-1.9s-0.5-1.5-1.1-1.8s-1.4-0.3-1.9-0.3h-1.5v4.3H102.5z"/>
		<path class="st0" d="M126.9,25.4h-4V24c-0.7,1.3-2.4,1.9-3.9,1.9c-4.2,0-6.6-3.3-6.6-7.1c0-4.3,3.1-7.1,6.6-7.1
			c2.2,0,3.4,1,3.9,1.9v-1.4h4V25.4z M116.3,18.8c0,1.2,0.9,3.3,3.3,3.3c1.4,0,2.3-0.7,2.8-1.5c0.3-0.5,0.5-1.1,0.5-1.7
			s-0.1-1.2-0.3-1.7c-0.4-0.9-1.3-1.8-3-1.8C117.3,15.4,116.3,17.3,116.3,18.8L116.3,18.8z"/>
		<path class="st0" d="M135.9,15.9c0-0.3-0.1-1-1.2-1c-0.8,0-1.1,0.5-1.1,0.9c0,0.6,1,1,2,1.3c2.2,0.6,4.6,1.3,4.6,4.1
			c0,2.9-2.5,4.6-5.4,4.6c-2,0-5-0.9-5.4-4.4h3.9c0.2,1.2,1.3,1.2,1.5,1.2c0.7,0,1.4-0.4,1.4-1c0-0.9-1-1-3.5-2
			c-1.7-0.5-3.1-1.7-3.1-3.5c0-2.7,2.4-4.5,5.1-4.5c1.7,0,4.7,0.7,5.1,4.2L135.9,15.9L135.9,15.9z"/>
		<path class="st0" d="M148.2,15.9c0-0.3-0.1-1-1.2-1c-0.8,0-1.1,0.5-1.1,0.9c0,0.6,1,1,2,1.3c2.2,0.6,4.6,1.3,4.6,4.1
			c0,2.9-2.5,4.6-5.4,4.6c-2,0-5-0.9-5.4-4.4h3.9c0.2,1.2,1.3,1.2,1.5,1.2c0.7,0,1.4-0.4,1.4-1c0-0.9-1-1-3.5-2
			c-1.7-0.5-3.1-1.7-3.1-3.5c0-2.7,2.4-4.5,5.1-4.5c1.7,0,4.7,0.7,5.1,4.2L148.2,15.9L148.2,15.9z"/>
		<path class="st0" d="M168.4,25.4h-4V24c-0.7,1.3-2.4,1.9-3.9,1.9c-4.2,0-6.6-3.3-6.6-7.1c0-4.3,3.1-7.1,6.6-7.1
			c2.2,0,3.4,1,3.9,1.9v-1.4h4V25.4z M157.8,18.8c0,1.2,0.9,3.3,3.3,3.3c1.4,0,2.3-0.7,2.8-1.5c0.3-0.5,0.5-1.1,0.5-1.7
			s-0.1-1.2-0.3-1.7c-0.4-0.9-1.3-1.8-3-1.8C158.8,15.4,157.8,17.3,157.8,18.8L157.8,18.8z"/>
		<path class="st0" d="M184.5,23.8c0,2-0.1,3.2-0.8,4.4c-1,1.7-3.4,3.1-6.7,3.1c-4.6,0-6.3-2.8-6.6-4.6h4.6c0.3,0.6,0.8,1,1.3,1.1
			c0.5,0.2,0.9,0.2,1,0.2c1.5,0,3.2-0.9,3.2-3.2V24c-0.5,0.8-1.6,1.9-3.7,1.9c-3.6,0-6.7-2.7-6.7-7c0-4.5,3.2-7.1,6.7-7.1
			c1.5,0,2.9,0.5,3.7,1.7v-1.2h4V23.8z M174.1,18.7c0,2.1,1.5,3.4,3.2,3.4c1,0,1.7-0.3,2.3-0.9c0.5-0.6,0.9-1.4,0.9-2.3
			c0-1-0.3-1.9-0.8-2.5s-1.3-1-2.4-1C175.6,15.4,174.1,16.8,174.1,18.7L174.1,18.7z"/>
		<path class="st0" d="M190.1,20.1c0.2,1.4,1.5,2.3,3,2.3c1.3,0,1.9-0.5,2.4-1.2h4c-0.6,1.5-1.6,2.6-2.7,3.4
			c-1.1,0.8-2.4,1.2-3.8,1.2c-3.8,0-7-3.1-7-7c0-3.7,2.9-7.1,6.9-7.1c2,0,3.8,0.8,5,2.1c1.7,1.8,2.2,3.9,1.9,6.3
			C199.8,20.1,190.1,20.1,190.1,20.1z M196,17.1c-0.1-0.6-0.9-2.1-3-2.1c-2,0-2.9,1.5-3,2.1H196z"/>
	</g>
</g>
</svg>
