<svg id="Component_24_1" data-name="Component 24 – 1" xmlns="http://www.w3.org/2000/svg" width="215" height="50" viewBox="0 0 215 50">
  <g id="Path_7" data-name="Path 7" fill="#edcaa7">
    <path d="M 190.8218078613281 49.49999237060547 L 24.17819404602051 49.49999237060547 C 20.98352813720703 49.49999237060547 17.88455581665039 48.85310363769531 14.96730518341064 47.5772705078125 C 12.14819431304932 46.34435272216797 9.616000175476074 44.57893753051758 7.441027641296387 42.33007431030273 C 5.26497220993042 40.08002090454102 3.556388854980469 37.45968627929688 2.362833261489868 34.54182434082031 C 1.126749992370605 31.52007484436035 0.5 28.30974197387695 0.5 24.99999237060547 C 0.5 21.69024276733398 1.126749992370605 18.47990989685059 2.362833261489868 15.45815944671631 C 3.556388854980469 12.54029750823975 5.26497220993042 9.919964790344238 7.441027641296387 7.669909000396729 C 9.616000175476074 5.421048164367676 12.14819431304932 3.655631303787231 14.96730518341064 2.422714710235596 C 17.88455581665039 1.146881222724915 20.98352813720703 0.4999923706054688 24.17819404602051 0.4999923706054688 L 190.8218078613281 0.4999923706054688 C 194.0164489746094 0.4999923706054688 197.1154479980469 1.146881222724915 200.0326995849609 2.422714710235596 C 202.851806640625 3.655631303787231 205.3840026855469 5.421048164367676 207.5589447021484 7.669909000396729 C 209.7350311279297 9.919964790344238 211.4435882568359 12.54029750823975 212.6371612548828 15.45815944671631 C 213.8732452392578 18.47990989685059 214.5 21.69024276733398 214.5 24.99999237060547 C 214.5 28.30974197387695 213.8732452392578 31.52007484436035 212.6371612548828 34.54182434082031 C 211.4435882568359 37.45968627929688 209.7350311279297 40.08002090454102 207.5589447021484 42.33007431030273 C 205.3840026855469 44.57893753051758 202.851806640625 46.34435272216797 200.0326995849609 47.5772705078125 C 197.1154479980469 48.85310363769531 194.0164489746094 49.49999237060547 190.8218078613281 49.49999237060547 Z" stroke="none"/>
    <path d="M 24.17819213867188 0.9999923706054688 C 21.05291748046875 0.9999923706054688 18.02133178710938 1.632797241210938 15.16763305664062 2.880825042724609 C 12.40855407714844 4.087493896484375 9.929855346679688 5.815715789794922 7.800445556640625 8.017520904541016 C 5.668777465820312 10.22166061401367 3.9949951171875 12.78874206542969 2.825607299804688 15.64746475219727 C 1.614227294921875 18.60885429382324 1 21.7554931640625 1 24.99999237060547 C 1 28.24449157714844 1.614227294921875 31.3911304473877 2.825607299804688 34.35251998901367 C 3.9949951171875 37.21124267578125 5.668777465820312 39.77832794189453 7.800445556640625 41.98246383666992 C 9.929855346679688 44.18426895141602 12.40855407714844 45.91249084472656 15.16763305664062 47.11915969848633 C 18.02133178710938 48.3671875 21.05291748046875 48.99999237060547 24.17819213867188 48.99999237060547 L 190.82177734375 48.99999237060547 C 193.9470520019531 48.99999237060547 196.9786376953125 48.3671875 199.8323364257812 47.11915969848633 C 202.5914459228516 45.91249084472656 205.0701141357422 44.18426895141602 207.1995239257812 41.98246383666992 C 209.3312225341797 39.77832794189453 211.0050048828125 37.21124267578125 212.1743927001953 34.35251998901367 C 213.3857727050781 31.3911304473877 214 28.24449157714844 214 24.99999237060547 C 214 21.7554931640625 213.3857727050781 18.60885429382324 212.1743927001953 15.64746475219727 C 211.0050048828125 12.78874206542969 209.3312225341797 10.22166061401367 207.1995239257812 8.017520904541016 C 205.0701141357422 5.815715789794922 202.5914459228516 4.087493896484375 199.8323364257812 2.880825042724609 C 196.9786376953125 1.632797241210938 193.9470520019531 0.9999923706054688 190.82177734375 0.9999923706054688 L 24.17819213867188 0.9999923706054688 M 24.17819213867188 -7.62939453125e-06 L 190.82177734375 -7.62939453125e-06 C 204.1750335693359 -7.62939453125e-06 215 11.1928825378418 215 24.99999237060547 C 215 38.80710220336914 204.1750335693359 49.99999237060547 190.82177734375 49.99999237060547 L 24.17819213867188 49.99999237060547 C 10.824951171875 49.99999237060547 0 38.80710220336914 0 24.99999237060547 C 0 11.1928825378418 10.824951171875 -7.62939453125e-06 24.17819213867188 -7.62939453125e-06 Z" stroke="none" fill="#fff"/>
  </g>
  <text id="Cancel" transform="translate(107.138 32.379)" fill="#fff" font-size="20" font-family="Arial-BoldMT, Arial" font-weight="700"><tspan x="-32.793" y="0">Cancel</tspan></text>
</svg>
